<svg xmlns="http://www.w3.org/2000/svg" width="780" height="780" viewBox="0 0 780 780" version="1.1">
  <g id="Symbols" fill="none" fill-rule="evenodd" stroke="none" stroke-width="1" opacity=".1">
    <g id="assets/images/gear-l">
      <polyline id="gear-l" fill="#000000" points="682.34 389.728 681.552 411.157 687.61 411.726 689.821 412.2 692.223 412.84 694.38 413.507 696.834 414.357 699.572 415.41 701.551 416.235 703.648 417.165 705.859 418.206 708.181 419.364 710.608 420.644 713.138 422.051 715.765 423.591 718.484 425.268 721.291 427.088 723.744 429.003 720.59 443.418 717.333 444.462 714.197 445.39 711.186 446.208 708.303 446.922 705.552 447.537 702.934 448.062 700.454 448.501 698.112 448.861 695.912 449.149 692.881 449.46 690.178 449.645 687.809 449.728 685.173 449.716 682.727 449.584 680.699 449.336 676.368 448.447 671.282 469.278 677.101 471.055 679.172 471.964 681.395 473.075 683.374 474.162 685.606 475.488 688.077 477.071 689.849 478.277 691.715 479.611 693.672 481.076 695.713 482.677 697.833 484.419 700.028 486.307 702.291 488.343 704.617 490.534 707 492.881 709.017 495.251 703.025 508.736 699.624 509.103 696.366 509.381 693.252 509.576 690.285 509.695 687.465 509.744 684.796 509.731 682.277 509.662 679.911 509.544 677.698 509.383 674.667 509.077 671.982 508.715 669.645 508.319 667.065 507.778 664.696 507.156 662.759 506.504 658.696 504.761 649.52 524.143 654.862 527.054 656.707 528.362 658.661 529.897 660.381 531.361 662.301 533.109 664.402 535.156 665.895 536.695 667.455 538.376 669.076 540.205 670.753 542.184 672.479 544.318 674.249 546.608 676.055 549.059 677.893 551.672 679.755 554.451 681.253 557.179 672.669 569.181 669.264 568.857 666.016 568.473 662.927 568.038 659.996 567.557 657.225 567.038 654.613 566.488 652.16 565.913 649.866 565.321 647.73 564.718 644.823 563.809 642.266 562.913 640.056 562.055 637.638 561.005 635.443 559.92 633.677 558.891 630.048 556.367 617.157 573.504 621.804 577.431 623.348 579.084 624.953 580.981 626.343 582.761 627.871 584.859 629.517 587.288 630.67 589.095 631.859 591.056 633.079 593.174 634.323 595.45 635.585 597.887 636.857 600.487 638.133 603.251 639.407 606.181 640.671 609.278 641.59 612.251 630.765 622.28 627.495 621.277 624.391 620.248 621.452 619.199 618.678 618.139 616.068 617.072 613.62 616.008 611.333 614.951 609.205 613.909 607.235 612.889 604.57 611.413 602.246 610.022 600.254 608.736 598.097 607.221 596.165 605.716 594.642 604.353 591.596 601.15 575.519 615.342 579.28 620.124 580.46 622.053 581.65 624.235 582.653 626.258 583.727 628.621 584.851 631.331 585.616 633.333 586.386 635.494 587.155 637.814 587.915 640.294 588.66 642.935 589.383 645.738 590.076 648.702 590.734 651.828 591.349 655.116 591.65 658.213 579.028 665.859 576.027 664.218 573.193 662.585 570.526 660.966 568.022 659.369 565.68 657.799 563.497 656.264 561.469 654.768 559.595 653.32 557.87 651.924 555.557 649.942 553.56 648.111 551.868 646.451 550.061 644.533 548.471 642.67 547.254 641.028 544.915 637.277 526.309 647.943 529.03 653.384 529.798 655.512 530.524 657.888 531.1 660.072 531.676 662.602 532.231 665.483 532.577 667.598 532.897 669.87 533.183 672.297 533.428 674.879 533.626 677.616 533.77 680.507 533.852 683.55 533.867 686.745 533.807 690.089 533.479 693.184 519.576 698.132 516.966 695.921 514.52 693.751 512.233 691.629 510.102 689.56 508.124 687.551 506.295 685.608 504.61 683.735 503.065 681.939 501.657 680.224 499.79 677.817 498.203 675.622 496.88 673.655 495.495 671.413 494.313 669.268 493.451 667.415 491.915 663.27 471.543 669.973 473.113 675.851 473.437 678.089 473.67 680.563 473.794 682.817 473.849 685.412 473.813 688.346 473.726 690.488 473.582 692.777 473.373 695.211 473.093 697.79 472.736 700.511 472.295 703.372 471.763 706.369 471.135 709.501 470.403 712.765 469.458 715.73 454.843 717.779 452.732 715.088 450.773 712.47 448.96 709.931 447.289 707.476 445.756 705.11 444.355 702.838 443.082 700.665 441.931 698.595 440.897 696.632 439.552 693.898 438.44 691.429 437.54 689.236 436.635 686.761 435.909 684.421 435.438 682.433 434.768 678.064 413.463 680.53 413.818 686.603 413.684 688.86 413.414 691.331 413.082 693.564 412.613 696.117 411.987 698.983 411.471 701.063 410.869 703.277 410.174 705.62 409.381 708.089 408.483 710.683 407.475 713.396 406.351 716.225 405.104 719.167 403.73 722.216 402.208 724.931 387.48 723.996 385.954 720.935 384.562 717.977 383.297 715.125 382.155 712.384 381.13 709.758 380.215 707.25 379.405 704.865 378.694 702.605 378.076 700.475 377.31 697.526 376.718 694.883 376.277 692.554 375.889 689.948 375.649 687.51 375.588 685.468 375.812 681.053 354.446 679.181 353.571 685.201 352.986 687.385 352.224 689.751 351.449 691.871 350.476 694.278 349.285 696.959 348.361 698.893 347.325 700.94 346.173 703.095 344.899 705.355 343.498 707.714 341.964 710.169 340.293 712.714 338.48 715.344 336.52 718.055 334.483 720.408 320.244 716.528 319.365 713.222 318.597 710.044 317.933 706.996 317.366 704.082 316.89 701.303 316.499 698.663 316.186 696.163 315.945 693.807 315.769 691.595 315.612 688.553 315.563 685.845 315.601 683.475 315.746 680.844 316.001 678.408 316.353 676.395 317.46 672.116 296.909 665.982 294.84 671.702 293.827 673.724 292.604 675.888 291.418 677.809 289.981 679.971 288.274 682.357 286.98 684.066 285.553 685.862 283.991 687.741 282.288 689.698 280.44 691.727 278.444 693.823 276.294 695.98 273.989 698.191 271.523 700.452 269.054 702.347 255.888 695.68 255.693 692.266 255.58 688.998 255.543 685.879 255.575 682.91 255.668 680.092 255.816 677.427 256.013 674.916 256.251 672.559 256.524 670.358 256.983 667.346 257.481 664.684 257.995 662.37 258.666 659.822 259.407 657.487 260.156 655.586 262.103 651.617 243.208 641.473 240.029 646.66 238.629 648.436 236.996 650.31 235.447 651.953 233.604 653.781 231.452 655.775 229.84 657.188 228.081 658.661 226.172 660.187 224.11 661.761 221.892 663.377 219.514 665.028 216.975 666.708 214.271 668.41 211.401 670.128 208.601 671.487 197.046 662.307 197.543 658.924 198.091 655.7 198.682 652.637 199.311 649.735 199.97 646.994 200.651 644.413 201.35 641.993 202.057 639.733 202.768 637.631 203.823 634.773 204.847 632.266 205.817 630.103 206.987 627.742 208.183 625.604 209.3 623.893 212.005 620.397 195.54 606.657 191.382 611.098 189.653 612.557 187.676 614.063 185.828 615.361 183.655 616.78 181.146 618.301 179.282 619.36 177.262 620.449 175.085 621.56 172.749 622.687 170.25 623.823 167.589 624.961 164.763 626.096 161.772 627.219 158.615 628.325 155.598 629.092 146.128 617.774 147.296 614.56 148.482 611.513 149.678 608.632 150.878 605.916 152.075 603.363 153.262 600.973 154.434 598.743 155.582 596.671 156.701 594.755 158.31 592.168 159.818 589.918 161.203 587.994 162.825 585.917 164.427 584.064 165.865 582.613 169.219 579.733 155.857 562.96 150.89 566.474 148.903 567.554 146.664 568.632 144.592 569.532 142.177 570.485 139.413 571.469 137.374 572.132 135.177 572.791 132.821 573.441 130.305 574.075 127.629 574.685 124.793 575.265 121.797 575.807 118.641 576.306 115.326 576.753 112.216 576.897 105.219 563.906 107.01 560.992 108.785 558.246 110.536 555.664 112.259 553.245 113.945 550.986 115.59 548.884 117.186 546.935 118.728 545.137 120.21 543.485 122.307 541.275 124.237 539.375 125.981 537.769 127.988 536.061 129.93 534.568 131.631 533.436 135.496 531.29 125.784 512.172 120.212 514.613 118.048 515.272 115.637 515.877 113.427 516.341 110.87 516.789 107.964 517.197 105.833 517.435 103.548 517.639 101.11 517.802 98.518 517.916 95.774 517.975 92.879 517.972 89.835 517.9 86.643 517.754 83.306 517.524 80.231 517.04 75.992 502.906 78.333 500.413 80.625 498.08 82.86 495.904 85.034 493.881 87.141 492.007 89.175 490.279 91.131 488.691 93.004 487.24 94.788 485.92 97.287 484.178 99.56 482.705 101.592 481.483 103.901 480.214 106.104 479.143 107.999 478.376 112.217 477.052 106.553 456.37 100.602 457.64 98.35 457.85 95.867 457.957 93.609 457.967 91.014 457.891 88.086 457.705 85.951 457.51 83.671 457.25 81.25 456.919 78.688 456.509 75.988 456.014 73.153 455.429 70.186 454.746 67.089 453.96 63.866 453.064 60.952 451.97 59.646 437.273 62.441 435.301 65.155 433.477 67.783 431.796 70.32 430.252 72.761 428.841 75.101 427.557 77.337 426.396 79.463 425.351 81.476 424.418 84.275 423.214 86.798 422.228 89.034 421.44 91.552 420.662 93.925 420.056 95.935 419.686 100.334 419.239 98.95 397.84 92.865 397.886 90.617 397.639 88.163 397.244 85.949 396.799 83.423 396.202 80.592 395.431 78.54 394.811 76.359 394.097 74.054 393.285 71.627 392.368 69.082 391.34 66.423 390.196 63.654 388.93 60.779 387.537 57.802 386.01 55.168 384.353 56.848 369.693 59.982 368.325 63.008 367.084 65.921 365.966 68.717 364.964 71.392 364.073 73.943 363.287 76.366 362.599 78.659 362.004 80.819 361.495 83.803 360.879 86.473 360.421 88.822 360.1 91.445 359.844 93.892 359.728 95.935 359.77 100.334 360.217 103.286 338.978 97.317 337.799 95.165 337.104 92.841 336.223 90.761 335.342 88.407 334.248 85.789 332.924 83.904 331.903 81.912 330.765 79.817 329.505 77.625 328.119 75.339 326.6 72.965 324.944 70.507 323.147 67.971 321.203 65.363 319.109 63.116 316.955 67.713 302.933 71.059 302.224 74.273 301.618 77.351 301.109 80.291 300.69 83.091 300.356 85.748 300.099 88.26 299.913 90.626 299.792 92.844 299.728 95.891 299.725 98.599 299.814 100.964 299.972 103.585 300.249 106.005 300.628 107.998 301.081 112.217 302.403 119.385 282.193 113.775 279.837 111.807 278.723 109.708 277.393 107.849 276.111 105.762 274.566 103.465 272.742 101.824 271.362 100.102 269.847 98.304 268.192 96.435 266.392 94.502 264.444 92.509 262.344 90.464 260.089 88.372 257.675 86.238 255.099 84.471 252.537 91.797 239.727 95.217 239.706 98.487 239.759 101.605 239.88 104.569 240.062 107.379 240.298 110.033 240.581 112.532 240.904 114.874 241.261 117.059 241.645 120.044 242.256 122.678 242.888 124.964 243.519 127.475 244.318 129.769 245.176 131.631 246.02 135.496 248.165 146.587 229.811 141.567 226.375 139.863 224.887 138.074 223.162 136.511 221.532 134.779 219.599 132.895 217.349 131.566 215.668 130.184 213.837 128.756 211.853 127.288 209.715 125.787 207.417 124.258 204.96 122.708 202.339 121.145 199.553 119.574 196.6 118.359 193.735 128.113 182.662 131.468 183.33 134.66 184.04 137.69 184.786 140.557 185.56 143.262 186.357 145.805 187.168 148.187 187.988 150.409 188.809 152.473 189.625 155.273 190.824 157.726 191.973 159.838 193.051 162.137 194.34 164.212 195.642 165.865 196.843 169.219 199.722 183.778 183.977 179.553 179.6 178.183 177.8 176.779 175.749 175.576 173.838 174.268 171.596 172.876 169.014 171.912 167.099 170.927 165.027 169.928 162.797 168.921 160.407 167.912 157.855 166.91 155.14 165.92 152.261 164.949 149.217 164.005 146.008 163.391 142.957 175.176 134.074 178.327 135.403 181.311 136.741 184.129 138.082 186.781 139.418 189.27 140.742 191.598 142.049 193.766 143.331 195.777 144.583 197.634 145.797 200.137 147.535 202.308 149.155 204.159 150.636 206.152 152.36 207.922 154.054 209.299 155.563 212.005 159.058 229.436 146.565 226.179 141.427 225.2 139.388 224.237 137.098 223.443 134.984 222.613 132.524 221.77 129.714 221.212 127.645 220.664 125.418 220.134 123.032 219.629 120.488 219.155 117.785 218.719 114.923 218.329 111.904 217.991 108.727 217.712 105.394 217.725 102.282 231.057 95.953 233.877 97.889 236.53 99.8 239.02 101.68 241.349 103.522 243.52 105.321 245.537 107.07 247.403 108.762 249.121 110.393 250.696 111.956 252.797 114.162 254.598 116.185 256.113 118.009 257.717 120.099 259.11 122.114 260.155 123.87 262.103 127.838 281.692 119.109 279.535 113.42 278.987 111.226 278.505 108.789 278.153 106.558 277.836 103.982 277.575 101.06 277.445 98.92 277.357 96.628 277.318 94.185 277.335 91.591 277.415 88.848 277.565 85.958 277.791 82.922 278.099 79.742 278.497 76.421 279.137 73.375 293.47 69.859 295.842 72.323 298.056 74.729 300.116 77.071 302.027 79.345 303.792 81.543 305.415 83.662 306.902 85.696 308.257 87.639 309.484 89.487 311.098 92.071 312.455 94.415 313.572 96.506 314.723 98.876 315.681 101.13 316.352 103.061 317.46 107.34 338.406 102.731 337.439 96.725 337.343 94.466 337.362 91.981 337.467 89.726 337.674 87.138 338.008 84.224 338.311 82.102 338.686 79.839 339.14 77.438 339.679 74.9 340.309 72.23 341.038 69.428 341.87 66.5 342.812 63.447 343.871 60.274 345.111 57.42 359.858 56.86 361.686 59.751 363.37 62.553 364.917 65.263 366.33 67.874 367.616 70.383 368.78 72.785 369.827 75.076 370.763 77.252 371.593 79.31 372.654 82.165 373.511 84.735 374.184 87.008 374.834 89.561 375.319 91.962 375.587 93.988 375.812 98.402 397.257 98.104 397.518 92.026 397.88 89.794 398.398 87.364 398.955 85.175 399.679 82.683 400.592 79.895 401.316 77.877 402.139 75.736 403.067 73.475 404.106 71.098 405.262 68.609 406.539 66.012 407.944 63.311 409.482 60.511 411.157 57.616 412.946 55.069 427.505 57.489 428.713 60.689 429.799 63.773 430.768 66.738 431.627 69.58 432.382 72.297 433.038 74.884 433.602 77.339 434.081 79.658 434.48 81.841 434.944 84.852 435.266 87.541 435.468 89.903 435.59 92.535 435.582 94.984 435.437 97.022 434.768 101.391 455.834 105.416 457.314 99.515 458.117 97.401 459.114 95.125 460.1 93.093 461.312 90.797 462.768 88.25 463.883 86.42 465.12 84.488 466.484 82.461 467.981 80.342 469.614 78.136 471.388 75.849 473.308 73.486 475.378 71.052 477.602 68.554 479.867 66.42 493.64 71.72 494.179 75.097 494.622 78.337 494.975 81.436 495.244 84.393 495.436 87.206 495.558 89.872 495.616 92.39 495.618 94.759 495.569 96.977 495.418 100.019 495.192 102.718 494.914 105.073 494.504 107.676 494.003 110.073 493.45 112.04 491.915 116.185 511.74 124.367 514.378 118.885 515.591 116.976 517.025 114.947 518.4 113.156 520.049 111.15 521.988 108.949 523.449 107.38 525.05 105.737 526.794 104.026 528.686 102.251 530.73 100.419 532.928 98.536 535.285 96.608 537.802 94.641 540.484 92.641 543.132 91.006 555.557 98.97 555.405 102.386 555.186 105.649 554.907 108.756 554.576 111.707 554.198 114.5 553.78 117.136 553.331 119.615 552.855 121.936 552.361 124.098 551.6 127.048 550.835 129.646 550.09 131.896 549.164 134.364 548.191 136.611 547.253 138.427 544.915 142.178 562.686 154.182 566.374 149.343 567.946 147.717 569.76 146.019 571.467 144.541 573.486 142.909 575.828 141.142 577.575 139.9 579.474 138.612 581.528 137.287 583.739 135.93 586.109 134.546 588.642 133.144 591.338 131.73 594.2 130.31 597.229 128.891 600.153 127.822 610.719 138.124 609.883 141.44 609.012 144.591 608.113 147.579 607.194 150.402 606.261 153.063 605.322 155.561 604.382 157.898 603.449 160.075 602.53 162.095 601.191 164.831 599.918 167.222 598.735 169.276 597.331 171.506 595.925 173.512 594.641 175.101 591.596 178.306 606.587 193.641 611.173 189.643 613.04 188.367 615.159 187.068 617.129 185.964 619.435 184.771 622.085 183.512 624.047 182.647 626.166 181.768 628.444 180.883 630.883 179.999 633.483 179.121 636.246 178.257 639.172 177.415 642.262 176.599 645.515 175.819 648.593 175.361 656.87 187.578 655.382 190.658 653.895 193.57 652.413 196.315 650.945 198.896 649.495 201.314 648.072 203.572 646.681 205.672 645.329 207.617 644.022 209.41 642.159 211.821 640.431 213.907 638.859 215.681 637.035 217.583 635.254 219.265 633.676 220.563 630.048 223.089 641.645 241.127 646.942 238.134 649.028 237.26 651.365 236.414 653.516 235.729 656.015 235.025 658.865 234.325 660.96 233.872 663.213 233.438 665.623 233.03 668.19 232.654 670.914 232.318 673.794 232.028 676.83 231.791 680.02 231.615 683.363 231.505 686.471 231.676 692.118 245.309 690.042 248.026 687.998 250.579 685.994 252.97 684.036 255.202 682.129 257.279 680.281 259.205 678.495 260.982 676.78 262.615 675.138 264.108 672.828 266.094 670.716 267.79 668.818 269.211 666.649 270.707 664.566 271.996 662.759 272.95 658.696 274.694 666.424 294.697 672.215 292.832 674.434 292.395 676.894 292.037 679.14 291.799 681.729 291.612 684.661 291.5 686.805 291.479 689.099 291.507 691.541 291.592 694.132 291.74 696.867 291.959 699.747 292.255 702.768 292.634 705.929 293.103 709.226 293.669 712.236 294.462 715.023 308.952 712.441 311.196 709.926 313.285 707.481 315.223 705.114 317.016 702.828 318.667 700.63 320.181 698.523 321.562 696.513 322.817 694.605 323.949 691.942 325.43 689.532 326.665 687.387 327.675 684.961 328.704 682.661 329.547 680.699 330.119 676.368 331.009 679.91 352.158 685.959 351.496 688.22 351.515 690.702 351.659 692.949 351.878 695.523 352.217 698.418 352.697 700.522 353.107 702.763 353.596 705.139 354.171 707.646 354.838 710.282 355.603 713.043 356.472 715.926 357.452 718.928 358.547 722.043 359.765 724.832 361.147 724.644 375.902 721.664 377.58 718.78 379.12 715.995 380.527 713.315 381.807 710.743 382.964 708.285 384.004 705.944 384.933 703.722 385.758 701.625 386.482 698.719 387.397 696.109 388.122 693.805 388.68 691.221 389.2 688.798 389.562 686.761 389.727"/>
      <path id="marks" stroke="#000000" d="M389.5,389.5 L352,389.5 L351.5,389.5 L351.5,390.5 L352,390.5 L389.5,390.5 L389.5,428 L389.5,428.5 L390.5,428.5 L390.5,428 L390.5,390.5 L428,390.5 L428.5,390.5 L428.5,389.5 L428,389.5 L390.5,389.5 L390.5,352 L390.5,351.5 L389.5,351.5 L389.5,352 L389.5,389.5 Z" stroke-linecap="square" transform="translate(390.000000, 390.000000) rotate(45.000000) translate(-390.000000, -390.000000)"/>
    </g>
  </g>
</svg>
