<svg xmlns="http://www.w3.org/2000/svg" width="32" height="32" viewBox="0 0 32 32">
  <path fill="#2E2E2E" stroke="#2E2E2E" stroke-width=".5" d="M6.83034834,20.3044216 L2.46103976,20.3044216 L2.46103976,11.2007113 L0.0540540266,11.2007113 L0.0540540266,7.01978345 L2.46096947,7.01978345 L2.46096947,4.6720533 C2.46096947,2.51671049 3.80943819,0 7.61142551,0 C8.95174043,0 9.93567836,0.125610592 9.97679878,0.131023024 L10.3802007,0.18346035 L10.2830581,4.0960862 L9.83853575,4.09200931 C9.83762196,4.09200931 8.83878228,4.08251998 7.7491965,4.08251998 C6.93831581,4.08251998 6.83077008,4.28263937 6.83077008,5.0786183 L6.83077008,7.02069724 L10.4095122,7.02069724 L10.2112203,11.2016251 L6.83119183,11.2016251 L6.83119183,20.3044216 L6.83034834,20.3044216 Z M3.36400209,19.4008969 L5.92633165,19.4008969 L5.92633165,10.2976787 L9.34790232,10.2976787 L9.46086048,7.9233081 L5.92633165,7.9233081 L5.92633165,5.07770452 C5.92633165,4.13805012 6.14268833,3.17808154 7.74821242,3.17808154 C8.39334617,3.17808154 9.00635679,3.18124465 9.40069111,3.18440776 L9.45537776,0.984851712 C9.0564745,0.94914372 8.39285413,0.903524652 7.61044143,0.903524652 C4.47938478,0.903524652 3.36351005,2.85010223 3.36351005,4.6720533 L3.36351005,7.9233081 L0.956664892,7.9233081 L0.956664892,10.2976787 L3.36358034,10.2976787 L3.36358034,19.4008969 L3.36400209,19.4008969 Z" transform="translate(10.5 5.5)"/>
</svg>
