<svg xmlns="http://www.w3.org/2000/svg" width="80" height="80" viewBox="0 0 80 80">
  <g fill="#000000" transform="translate(9 10)">
    <path d="M58.5472891 49.1905207L58.5472891 56.7892844 3.83993356 56.7892844 3.83993356 49.1905207.79855645 49.1905207.79855645 58.3084132C.79855645 59.1475214 1.47857718 59.8275421 2.31768532 59.8275421L60.066418 59.8275421C60.9055262 59.8275421 61.5855469 59.1475214 61.5855469 58.3084132L61.5855469 49.1905207 58.5472891 49.1905207zM48.3563363 28.359427L32.7127402 44.0030231 32.7127402.559680567 29.6744825.559680567 29.6744825 43.9999037 14.0308864 28.3563076 11.8816466 30.5055475 30.1174318 48.7413327C30.4137711 49.037672 30.8036912 49.1874013 31.190492 49.1874013 31.5772928 49.1874013 31.9672129 49.037672 32.2635522 48.7413327L50.4993374 30.5055475 48.3563363 28.359427z"/>
  </g>
</svg>
