<svg xmlns="http://www.w3.org/2000/svg" width="242" height="242" viewBox="0 0 242 242" version="1.1">
  <g id="Symbols" fill="none" fill-rule="evenodd" stroke="none" stroke-width="1">
    <g id="assets/images/icn-send" fill="#000000" fill-rule="nonzero">
      <path id="Shape" d="M25.41497,126.840857 C25.6068858,127.032826 25.8575513,127.126851 26.1101751,127.126851 C26.3588823,127.126851 26.6115061,127.032826 26.8034219,126.840857 L29.1279528,124.513727 L31.4505255,126.836939 C31.6424412,127.028908 31.8950651,127.124892 32.1437723,127.124892 C32.3963961,127.124892 32.6470616,127.028908 32.8389774,126.836939 C33.2228089,126.453002 33.2228089,125.832042 32.8389774,125.448105 L30.5144464,123.122933 L32.8311441,120.803639 C33.216934,120.42166 33.216934,119.798741 32.8311441,119.414804 C32.4473125,119.030867 31.8265237,119.030867 31.4446505,119.414804 L29.1259945,121.734099 L26.8053802,119.414804 C26.4215487,119.030867 25.7988015,119.030867 25.4169283,119.414804 C25.0330968,119.798741 25.0330968,120.42166 25.4169283,120.803639 L27.7375426,123.124892 L25.4130117,125.450064 C25.0311384,125.834001 25.0311384,126.45692 25.41497,126.840857 Z" transform="translate(29.126851, 123.126851) rotate(20.000000) translate(-29.126851, -123.126851)"/>
      <path id="Shape" d="M143.414593,54.8389157 C143.608378,55.0308726 143.858928,55.1268511 144.109479,55.1268511 C144.358072,55.1268511 144.61058,55.0308726 144.802408,54.8389157 L147.125872,52.5138866 L149.449337,54.836957 C149.639207,55.0289139 149.891715,55.1248923 150.142266,55.1248923 C150.394774,55.1248923 150.645324,55.0289139 150.839109,54.836957 C151.222765,54.4550019 151.222765,53.8321213 150.839109,53.4482075 L148.515645,51.1251372 L150.833237,48.8040256 C151.216893,48.4201118 151.216893,47.7991899 150.833237,47.4152761 C150.449582,47.033321 149.82712,47.033321 149.445422,47.4152761 L147.12783,49.7344289 L144.806323,47.4133174 C144.422667,47.0313623 143.800206,47.0313623 143.418508,47.4133174 C143.034852,47.7972312 143.034852,48.4201118 143.418508,48.8020668 L145.738057,51.1231784 L143.414593,53.4501662 C143.030937,53.83408 143.030937,54.4550019 143.414593,54.8389157 Z" transform="translate(147.126851, 51.126851) rotate(20.000000) translate(-147.126851, -51.126851)"/>
      <path id="Shape" d="M48.8028178,181.838916 L51.1268511,179.513887 L53.4489264,181.836957 C53.642759,182.028914 53.8953288,182.124892 54.1459406,182.124892 C54.3965525,182.124892 54.6491222,182.028914 54.839039,181.836957 C55.2227884,181.453043 55.2227884,180.830163 54.839039,180.448207 L52.5150057,178.123178 L54.8351232,175.802067 C55.2188726,175.418153 55.2188726,174.797231 54.8351232,174.413317 C54.4513738,174.031362 53.82876,174.031362 53.4450106,174.413317 L51.1268511,176.734429 L48.8067336,174.413317 C48.4229842,174.031362 47.8023283,174.031362 47.4185789,174.413317 C47.0348295,174.797231 47.0348295,175.418153 47.4185789,175.802067 L49.7386964,178.123178 L47.4146631,180.450166 C47.0309137,180.832121 47.0309137,181.455002 47.4146631,181.838916 C47.6045799,182.030873 47.8571496,182.126851 48.1077615,182.126851 C48.3603312,182.126851 48.612901,182.030873 48.8028178,181.838916 Z" transform="translate(51.126851, 178.126851) rotate(20.000000) translate(-51.126851, -178.126851)"/>
      <path id="Shape-Copy-2" d="M172.802818,141.838916 L175.126851,139.513887 L177.448926,141.836957 C177.642759,142.028914 177.895329,142.124892 178.145941,142.124892 C178.396552,142.124892 178.649122,142.028914 178.839039,141.836957 C179.222788,141.453043 179.222788,140.830163 178.839039,140.448207 L176.515006,138.123178 L178.835123,135.802067 C179.218873,135.418153 179.218873,134.797231 178.835123,134.413317 C178.451374,134.031362 177.82876,134.031362 177.445011,134.413317 L175.126851,136.734429 L172.806734,134.413317 C172.422984,134.031362 171.802328,134.031362 171.418579,134.413317 C171.03483,134.797231 171.03483,135.418153 171.418579,135.802067 L173.738696,138.123178 L171.414663,140.450166 C171.030914,140.832121 171.030914,141.455002 171.414663,141.838916 C171.60458,142.030873 171.85715,142.126851 172.107761,142.126851 C172.360331,142.126851 172.612901,142.030873 172.802818,141.838916 Z" transform="translate(175.126851, 138.126851) rotate(20.000000) translate(-175.126851, -138.126851)"/>
      <path id="Shape" d="M215.869315,121.446454 L213.54863,119.123668 L215.867357,116.802841 C216.2512,116.418974 216.2512,115.794211 215.867357,115.41622 C215.483513,115.030395 214.862706,115.030395 214.478862,115.41622 L212.158177,117.735089 L209.83945,115.41622 C209.455606,115.030395 208.834799,115.030395 208.450955,115.41622 C208.067112,115.798128 208.067112,116.418974 208.450955,116.802841 L210.769682,119.123668 L208.44508,121.450371 C208.061237,121.834238 208.061237,122.455084 208.44508,122.838951 C208.63896,123.030884 208.889633,123.126851 209.140306,123.126851 C209.39098,123.126851 209.643611,123.030884 209.833575,122.838951 L212.158177,120.514206 L214.480821,122.835034 C214.674701,123.026967 214.925374,123.122934 215.176047,123.122934 C215.42672,123.122934 215.679352,123.026967 215.869315,122.835034 C216.253158,122.453126 216.253158,121.830321 215.869315,121.446454 Z" transform="translate(212.157198, 119.126851) rotate(20.000000) translate(-212.157198, -119.126851)"/>
      <path id="Shape" d="M181.748892,98.6155464 C183.034226,98.6155464 184.299382,98.1088034 185.477773,97.6321045 C187.767968,96.7087507 189.935077,95.845485 192.568297,97.8744598 C193.010194,98.2129561 193.641763,98.1368445 193.988823,97.6982014 C194.331848,97.2595583 194.251136,96.6266303 193.811257,96.288134 C190.247835,93.5441107 187.182808,94.7779197 184.717065,95.7693734 C182.485386,96.6706949 181.252515,97.0832998 179.922789,95.7773851 C179.52932,95.3908183 178.885644,95.3948242 178.492174,95.7894027 C178.100722,96.1839813 178.104758,96.8229181 178.504281,97.2114878 C179.571693,98.2550178 180.667355,98.6155464 181.748892,98.6155464 Z" transform="translate(186.201581, 96.615546) rotate(20.000000) translate(-186.201581, -96.615546)"/>
      <path id="Shape" d="M90.5940533,185.78618 C90.6599062,186.316437 91.0889476,186.710518 91.5878331,186.710518 C91.6357261,186.710518 91.6696503,186.710518 91.7035745,186.694012 C92.2483574,186.642431 92.6494613,186.12868 92.5975772,185.565412 C92.563653,185.274493 92.0507988,180.03589 94.6150699,177.093688 C95.4931083,178.820633 96.8520722,180.345378 98.8875248,180.807547 C100.559789,181.185122 102.050458,180.619791 102.894573,179.317877 C103.738687,177.999457 103.720727,176.220932 102.84668,174.900449 C102.33183,174.130855 100.743379,172.436923 97.0995194,173.30968 C96.5387721,173.445854 96.007958,173.633611 95.5270325,173.856442 C95.0660623,172.181079 94.9662853,170.709979 94.9662853,170.674903 C94.932361,170.111635 94.4374667,169.647403 93.9086481,169.717553 C93.3618697,169.752629 92.9328282,170.24781 92.9627613,170.813141 C92.9827168,170.984392 93.112427,172.919724 93.7909112,175.04075 C90.7417234,177.844713 90.294722,182.928573 90.5940533,185.78618 Z M97.5624851,175.329606 C99.2686732,174.919018 100.591717,175.193431 101.202353,176.082694 C101.617426,176.699607 101.617426,177.555858 101.220313,178.170707 C100.84116,178.752545 100.162676,178.975377 99.3165663,178.785557 C97.8618163,178.461626 96.866041,177.229863 96.221481,175.808281 C96.6185938,175.604019 97.0655952,175.432769 97.5624851,175.329606 Z" transform="translate(97.015173, 178.210518) rotate(20.000000) translate(-97.015173, -178.210518)"/>
      <path id="Shape" d="M65.8939615,129.316711 C66.7382289,127.998451 66.7222617,126.220142 65.8440639,124.901882 C65.3331125,124.130318 63.7244139,122.436592 60.0998522,123.311306 C59.5370073,123.447464 59.0080927,123.635197 58.5270799,123.858002 C58.0640302,122.182842 57.964235,120.709857 57.964235,120.674786 C57.9303046,120.111586 57.4333245,119.64741 56.9044099,119.717552 C56.3395691,119.752623 55.926417,120.247744 55.9603473,120.813008 C55.9763146,120.984237 56.1100401,122.917272 56.7886475,125.056607 C53.7269308,127.847852 53.2958155,132.929031 53.5952011,135.786292 C53.6610659,136.316484 54.0921812,136.710518 54.5871654,136.710518 L54.7049237,136.710518 C55.2518014,136.640376 55.6469904,136.128751 55.5970928,135.563488 C55.5631625,135.270541 55.052211,130.034637 57.6169477,127.092793 C58.4931495,128.819527 59.834397,130.344087 61.8881822,130.8062 C63.5607497,131.165163 65.0496941,130.618467 65.8939615,129.316711 Z M64.2233899,128.171744 C63.8421722,128.753511 63.181528,128.976315 62.3173016,128.788582 C60.8443244,128.460564 59.8683274,127.231014 59.2216545,125.809604 C59.6208353,125.603303 60.0659219,125.432074 60.5469347,125.330987 C62.2693999,124.920449 63.5946801,125.194829 64.1894595,126.083983 C64.6026116,126.700822 64.6185789,127.554905 64.2233899,128.171744 Z" transform="translate(60.015173, 128.210518) rotate(20.000000) translate(-60.015173, -128.210518)"/>
      <path id="Shape" d="M126.208944,91.6474175 C125.852747,91.4528753 125.516449,91.2106902 125.21796,90.9288025 C123.307628,89.1243247 123.220072,86.1089211 125.026927,84.2032019 C125.405013,83.8022069 125.387104,83.1729225 124.989118,82.7957489 C124.587153,82.4165902 123.956345,82.4364415 123.578259,82.8354514 C121.011251,85.5391905 121.134626,89.8211033 123.848889,92.3819134 C124.274734,92.7829085 124.748337,93.1243498 125.253779,93.4002821 C125.407003,93.4816722 125.572167,93.5233598 125.733351,93.5233598 C126.085569,93.5233598 126.425847,93.334773 126.60892,93.0052424 C126.871591,92.5169018 126.694487,91.9134241 126.208944,91.6474175 Z" transform="translate(124.230342, 88.023360) rotate(20.000000) translate(-124.230342, -88.023360)"/>
      <path id="Shape-Copy-3" d="M168.208944,192.647417 C167.852747,192.452875 167.516449,192.21069 167.21796,191.928803 C165.307628,190.124325 165.220072,187.108921 167.026927,185.203202 C167.405013,184.802207 167.387104,184.172923 166.989118,183.795749 C166.587153,183.41659 165.956345,183.436441 165.578259,183.835451 C163.011251,186.53919 163.134626,190.821103 165.848889,193.381913 C166.274734,193.782908 166.748337,194.12435 167.253779,194.400282 C167.407003,194.481672 167.572167,194.52336 167.733351,194.52336 C168.085569,194.52336 168.425847,194.334773 168.60892,194.005242 C168.871591,193.516902 168.694487,192.913424 168.208944,192.647417 Z" transform="translate(166.230342, 189.023360) rotate(20.000000) translate(-166.230342, -189.023360)"/>
      <path id="Shape-Copy" d="M82.2089443,84.6474175 C81.8527471,84.4528753 81.5164492,84.2106902 81.2179599,83.9288025 C79.3076284,82.1243247 79.2200716,79.1089211 81.0269267,77.2032019 C81.4050132,76.8022069 81.3871038,76.1729225 80.9891181,75.7957489 C80.5871525,75.4165902 79.9563452,75.4364415 79.5782587,75.8354514 C77.0112508,78.5391905 77.1346264,82.8211033 79.848889,85.3819134 C80.2747337,85.7829085 80.7483367,86.1243498 81.2537786,86.4002821 C81.4070031,86.4816722 81.5721672,86.5233598 81.7333514,86.5233598 C82.0855688,86.5233598 82.4258465,86.334773 82.60892,86.0052424 C82.8715906,85.5169018 82.6944869,84.9134241 82.2089443,84.6474175 Z" transform="translate(80.230342, 81.023360) rotate(20.000000) translate(-80.230342, -81.023360)"/>
      <path id="Shape" d="M134.29112,162.9305 C133.88864,162.9305 133.49552,162.773682 133.20224,162.485136 L115.46192,145.084591 C114.88784,144.520045 114.83168,143.6105 115.334,142.980091 L152.33096,96.656 C152.79896,96.0695 153.61328,95.9001364 154.27472,96.2514091 C154.93616,96.6026818 155.25752,97.3742273 155.03912,98.0955909 L135.78248,161.823364 C135.62336,162.347136 135.20528,162.751727 134.678,162.886591 C134.55008,162.914818 134.42216,162.9305 134.29112,162.9305 Z M118.65368,143.836318 L133.54544,158.442364 L149.70704,104.951682 L118.65368,143.836318 Z"/>
      <path id="Shape" d="M104.14568,137.1935 C103.98344,137.1935 103.82432,137.168409 103.66832,137.118227 L81.3104,129.866955 C80.68952,129.666227 80.25896,129.098545 80.23088,128.446182 C80.2028,127.793818 80.58032,127.1885 81.17624,126.931318 L152.93624,96.1918182 C153.66008,95.8813182 154.49936,96.1604545 154.8956,96.8441818 C155.29184,97.5279091 155.12024,98.3998182 154.49624,98.8796818 L105.09416,136.870455 C104.81648,137.083727 104.48264,137.1935 104.14568,137.1935 Z M86.24,128.173318 L103.84304,133.8815 L142.7432,103.966864 L86.24,128.173318 Z"/>
      <path id="Shape" d="M103.91792,159.524409 C103.7432,159.524409 103.56536,159.493045 103.39064,159.433455 C102.76976,159.210773 102.35792,158.618 102.35792,157.956227 L102.35792,135.625318 C102.35792,135.136045 102.58568,134.675 102.96944,134.380182 L152.37152,96.3925455 C153.00176,95.9095455 153.89096,95.9754091 154.4432,96.5493636 C154.99232,97.1233182 155.02976,98.0203182 154.52432,98.6350455 L105.12224,158.953591 C104.8196,159.320545 104.37344,159.524409 103.91792,159.524409 Z M105.47792,136.4 L105.47792,153.584136 L143.492,107.169091 L105.47792,136.4 Z"/>
    </g>
  </g>
</svg>
