<svg xmlns="http://www.w3.org/2000/svg" width="70" height="70" viewBox="0 0 70 70">
  <path fill="#000000" d="M26.1405403,14.5082156 L32.8433089,7.80707881 C33.3067505,7.34363723 33.4454566,6.64357935 33.1957856,6.03653616 C32.9436668,5.42949296 32.3513102,5.0337726 31.694496,5.0337726 L3.38131597,5.0337726 L3.38131597,2.17316313 C3.38131597,1.27565303 2.65270095,0.549485771 1.75763861,0.549485771 C0.860128507,0.549485771 0.133961244,1.27646895 0.133961244,2.17316313 L0.133961244,48.7286439 C0.133961244,49.626154 0.860944426,50.3523212 1.75763861,50.3523212 C2.65351687,50.3523212 3.38131597,49.6253381 3.38131597,48.7286439 L3.38131597,23.9818427 L31.694496,23.9818427 C32.3513102,23.9818427 32.9436668,23.5869382 33.1957856,22.9790791 C33.4462725,22.3720359 33.3075664,21.671978 32.8433089,21.2085364 L26.1405403,14.5082156 Z M3.38131597,20.7344879 L3.38131597,8.28194325 L27.7740087,8.28194325 L22.6965493,13.3594027 C22.0625808,13.995003 22.0625808,15.0214282 22.6965493,15.6570285 L27.7740087,20.7344879 L3.38131597,20.7344879 Z" transform="translate(18 9.5)"/>
</svg>
