<svg xmlns="http://www.w3.org/2000/svg" width="270" height="158" viewBox="0 0 170 114" xmlns:xlink="http://www.w3.org/1999/xlink">
  <defs>
    <rect id="a" width="625" height="271" x="77" y="237" rx="5"/>
    <mask id="c" width="625" height="271" x="0" y="0" fill="white">
      <use xlink:href="#a"/>
    </mask>
    <rect id="b" width="1280" height="730"/>
    <mask id="d" width="1280" height="730" x="0" y="0" fill="white">
      <use xlink:href="#b"/>
    </mask>
  </defs>
  <g fill="none" fill-rule="evenodd" transform="translate(-555 -311)">
    <use stroke="#979797" stroke-width="2" mask="url(#c)" xlink:href="#a"/>
    <text fill="#3C3810" font-family="Avenir-Book, Avenir" font-size="14">
      <tspan x="147" y="378">Blowfish librantur in se quatuor, quinquies maior quam normalis, et quare? </tspan> <tspan x="147" y="397">Quare id faciam? Ut terrorem facit, qui quid. Terrent! Ut alter, scarier pisces </tspan> <tspan x="147" y="416">agminis off. Et quod tu es? Vos blowfish. Tu iustus in omnibus visio. Vides ... </tspan> <tspan x="147" y="435">suus &apos; suus &apos;non aliud aerem. Nunc ... qui cum partibus blowfish Isai?</tspan>
    </text>
    <use fill="#000000" fill-opacity=".626" stroke="#979797" stroke-width="2" mask="url(#d)" xlink:href="#b"/>
    <rect width="346.004" height="362.608" x="34" y=".392" fill="#FFFFFF" rx="5" transform="translate(431 178.5)"/>
    <g transform="translate(555 311)">
      <g fill="#000000" transform="translate(28.307)">
        <path fill-rule="nonzero" d="M108.265815,54.8405391 C108.265815,24.5573819 84.0341052,0 54.1329073,0 C29.6368382,0 8.38696365,16.6238637 1.95344081,40.1934015 C0.66152743,44.9263918 7.10542736e-15,49.841173 7.10542736e-15,54.8405391 C7.10542736e-15,85.1236963 24.2317095,109.681078 54.1329073,109.681078 C84.0341052,109.681078 108.265815,85.1236963 108.265815,54.8405391 Z M8.84955895,54.8405391 C8.84955895,50.6440374 9.40376951,46.5265609 10.4853612,42.5640948 C15.8695495,22.8388474 33.6505792,8.92867524 54.1329073,8.92867524 C79.1377915,8.92867524 99.4162557,29.4796806 99.4162557,54.8405391 C99.4162557,80.2013976 79.1377915,100.752403 54.1329073,100.752403 C29.1280232,100.752403 8.84955895,80.2013976 8.84955895,54.8405391 Z"/>
        <path d="M63.7517762,48.1204394 L63.7517762,82.3729058 C63.7517762,82.785982 63.4140172,83.1208464 63.0138007,83.1208464 L46.7906338,83.1208464 C46.3830612,83.1208464 46.0526583,82.7902404 46.0526583,82.3729058 L46.0526583,48.1204394 L31.4987542,48.1204394 C31.2279435,48.1204394 31.1615544,47.9710555 31.3660364,47.771597 L54.4561834,25.2487079 C54.7513959,24.960748 55.2280742,24.9588403 55.5252424,25.2487079 L78.6153893,47.771597 C78.812902,47.9642574 78.7591709,48.1204394 78.4826715,48.1204394 L63.7517762,48.1204394 Z"/>
      </g>
      <rect width="169.5" height="50.85" y="62.856" fill="#FFFFFF"/>
      <path stroke="#000000" stroke-width="7" d="M21.7280199,64.5984473 L142.478818,64.5984473" stroke-linecap="round"/>
    </g>
  </g>
</svg>
