<svg xmlns="http://www.w3.org/2000/svg" width="251" height="250" viewBox="0 0 251 250" version="1.1">
  <g id="Symbols" fill="none" fill-rule="evenodd" stroke="none" stroke-width="1" opacity=".1">
    <g id="assets/images/gear-s">
      <path id="gear-s" fill="#000000" d="M189.939109,135.316007 L192.918437,125.396251 L200.931722,124.999892 L201.601186,124.939072 L202.315432,124.820467 L203.274086,124.603749 L203.841948,124.449693 L204.466954,124.260403 L205.147586,124.032627 L205.882001,123.762786 L206.668246,123.447628 L207.504263,123.084009 L208.387881,122.668785 L209.316715,122.198705 L210.288381,121.671165 L211.300166,121.082913 L212.349361,120.431565 L213.433038,119.714193 L214.548268,118.928413 L215.692016,118.071729 L216.860813,117.141975 L218.051621,116.136874 L218.860203,115.09643 L217.825213,107.904606 L216.756067,107.134437 L215.330285,106.505748 L213.946684,105.943082 L212.607756,105.443513 L211.316214,105.004004 L210.074226,104.621196 L208.883852,104.291945 L207.74726,104.01278 L206.666295,103.78045 L205.642581,103.591377 L204.677639,103.441983 L203.772985,103.3288 L202.929812,103.248031 L202.149096,103.196101 L201.431922,103.169323 L200.778832,103.164011 L200.190585,103.176262 L199.209811,103.238491 L198.491011,103.326089 L197.900378,103.438731 L188.040675,106.332827 C186.525281,101.248317 184.406754,96.4237551 181.768083,91.9421287 L190.691771,86.790868 L191.241091,86.4035067 L191.800387,85.9436168 L192.522115,85.2767656 L192.93687,84.8594822 L193.383613,84.3831135 L193.859091,83.8455995 L194.360158,83.2447721 L194.883454,82.5787882 L195.425618,81.8459132 L195.983179,81.0445209 L196.552559,80.1732019 L197.13018,79.2305469 L197.712247,78.2153632 L198.295181,77.1266752 L198.874862,75.963724 L199.447821,74.7256423 L200.009828,73.4119964 L200.557087,72.0224611 L201.085697,70.5568195 L201.265695,69.2516298 L196.772786,63.5406255 L195.461726,63.4080358 L193.912548,63.5764019 L192.432875,63.7808697 L191.023684,64.0175363 L189.685299,64.2824988 L188.418263,64.5719627 L187.222683,64.8818084 L186.098778,65.2082413 L185.046439,65.5474671 L184.06534,65.8954743 L183.154939,66.2484685 L182.314911,66.6026553 L181.544279,66.9542401 L180.842286,67.2996454 L180.207738,67.6349683 L179.639442,67.9568478 L179.136097,68.2614897 L178.317864,68.8057252 L177.739159,69.2408969 L177.284067,69.6336788 L169.996201,77.2749228 C166.188741,73.7235168 161.955859,70.6223308 157.382364,68.056172 L162.715699,58.8198697 L162.99784,58.2098272 L163.252224,57.5320262 L163.543799,56.5937077 L163.694304,56.0249707 L163.842857,55.3891257 L163.985879,54.6858476 L164.119252,53.9150279 L164.239503,53.0766666 L164.342514,52.1709805 L164.424598,51.1981865 L164.481959,50.1589351 L164.510802,49.0537683 L164.507224,47.8836618 L164.467537,46.6494829 L164.388056,45.3524243 L164.264985,43.9938952 L164.094854,42.575305 L163.873868,41.09828 L163.598666,39.5647716 L163.101827,38.3444697 L156.354927,35.6446493 L155.153276,36.1853072 L153.895782,37.1055207 L152.716576,38.0222649 L151.614466,38.9317454 L150.587934,39.8302762 L149.635352,40.7142796 L148.754987,41.5802863 L147.944995,42.4249356 L147.203207,43.2447582 L146.527563,44.0366101 L145.915677,44.7973474 L145.365272,45.5241512 L144.873855,46.2138776 L144.438498,46.8639248 L144.056706,47.4715822 L143.725553,48.0342481 L143.442001,48.5497541 L143.00556,49.4301798 L142.7219,50.0963805 L142.524227,50.6640334 L139.985709,61.1240894 L137.122746,60.7821118 C134.622822,60.332642 132.073453,60.0255701 129.483337,59.869593 L124.5,59.2743389 L124.499892,48.5818445 L124.439061,47.9124998 L124.320435,47.1983803 L124.103678,46.2398969 L123.949596,45.6721356 L123.760272,45.0472404 L123.532455,44.3667291 L123.262566,43.6324447 L122.947352,42.8463387 L122.583669,42.0104709 L122.168371,41.1270096 L121.698207,40.1983399 L121.170574,39.2268469 L120.582218,38.2152409 L119.930754,37.1662322 L119.213255,36.0827481 L118.427335,34.9677156 L117.570499,33.8241704 L116.64058,32.6555817 L115.635301,31.4649851 L114.594672,30.6565459 L107.401571,31.6913524 L106.631266,32.7603091 L106.002464,34.1858377 L105.439698,35.5691935 L104.940041,36.9078829 L104.500454,38.1991957 L104.117578,39.4409635 L103.788268,40.6311264 L103.509054,41.7675163 L103.276683,42.8482901 L103.087576,43.8718216 L102.938156,44.836593 L102.824952,45.7410865 L102.74417,46.5841096 L102.69223,47.3646865 L102.665448,48.0817332 L102.660134,48.7347075 L102.672387,49.3228505 L102.734628,50.3034502 L102.822241,51.0221231 L102.934903,51.6126512 L105.96744,61.9403344 L91.6313352,68.0798971 L86.2840846,58.8199781 L85.8966545,58.2707555 L85.436683,57.7115589 L84.7697134,56.9899589 L84.3523559,56.5752774 L83.8759026,56.1286139 L83.3382932,55.6532209 L82.7373591,55.1522423 L82.071257,54.6290389 L81.3382519,54.0869716 L80.5367173,53.5295096 L79.6652436,52.9602305 L78.7224212,52.382712 L77.7070573,51.8007486 L76.6181761,51.2179178 L75.4550184,50.6383394 L74.2167169,50.0654827 L72.9028377,49.5035757 L71.5130557,48.956413 L70.0471539,48.4278974 L68.7417325,48.247931 L63.0297143,52.7400428 L62.8971011,54.05087 L63.0654971,55.5997731 L63.2700012,57.0791832 L63.5067098,58.4881245 L63.7717193,59.8262719 L64.0612347,61.0930832 L64.3711353,62.28845 L64.6976262,63.4121555 L65.0369122,64.4643082 L65.3849812,65.4452332 L65.7380381,66.3554726 L66.0922877,67.1953517 L66.443935,67.9658462 L66.7894016,68.6677149 L67.124784,69.3021505 L67.4467207,69.8703454 L67.7514166,70.3736007 L68.2957488,71.1916887 L68.7309977,71.7702913 L69.1238494,72.2253026 L76.914848,79.6533594 L67.5697918,92.1371695 L58.3081204,86.7910849 L57.6979696,86.508993 L57.0200483,86.254655 L56.0815632,85.9631313 L55.5127252,85.8126534 L54.8767674,85.6641269 L54.1733644,85.5211296 L53.4024078,85.387781 L52.5638977,85.2675505 L51.6580509,85.1645577 L50.6850842,85.0824887 L49.6456482,85.025138 L48.5402852,84.9963 L47.369971,84.9998776 L46.135573,85.039557 L44.8382841,85.119024 L43.4795138,85.2420733 L42.0606718,85.412174 L40.5833846,85.6331207 L39.0496039,85.908274 L37.8290853,86.4050245 L35.1287856,93.1507269 L35.6695395,94.3521649 L36.5899164,95.6094358 L37.5068233,96.7884322 L38.4164653,97.8903466 L39.3151556,98.9166969 L40.1993159,99.8691091 L41.0654764,100.749318 L41.9102756,101.559167 L42.7302438,102.300823 L43.5222363,102.976347 L44.2831086,103.588125 L45.0100415,104.138431 L45.6998904,104.629761 L46.3500529,105.065041 L46.9578182,105.446765 L47.520584,105.77786 L48.0361815,106.061361 L48.9167635,106.497725 L49.5830825,106.781335 L50.1508362,106.978972 L60.6127492,109.51704 L58.7626704,125 L48.0682776,125.000108 L47.3988141,125.060928 L46.6845678,125.179533 L45.7259142,125.396251 L45.1580521,125.550307 L44.533046,125.739597 L43.8524139,125.967373 L43.1179991,126.237214 L42.3317536,126.552372 L41.4957374,126.915991 L40.6121193,127.331215 L39.6832847,127.801295 L38.7116192,128.328835 L37.6998336,128.917087 L36.6506387,129.568435 L35.5669622,130.285807 L34.4517318,131.071588 L33.3079836,131.928271 L32.1391874,132.858025 L30.9483794,133.863126 L30.1397967,134.90357 L31.1747869,142.095394 L32.2439334,142.865563 L33.6697151,143.494252 L35.0533164,144.056918 L36.3922435,144.556488 L37.6837855,144.995996 L38.9257738,145.378804 L40.116148,145.708055 L41.2527397,145.98722 L42.3337054,146.21955 L43.3574186,146.408623 L44.3223612,146.558017 L45.2270153,146.6712 L46.0701881,146.751969 L46.8509036,146.803899 L47.5680775,146.830677 L48.2211677,146.835989 L48.8094152,146.823738 L49.790189,146.761509 L50.5089894,146.673911 L51.0996224,146.561269 L61.4291391,143.52927 L67.5697918,157.862831 L58.3082289,163.209132 L57.7589088,163.596493 L57.1996129,164.056383 L56.4778848,164.723234 L56.0631296,165.140518 L55.6163869,165.616887 L55.1409095,166.1544 L54.6398419,166.755228 L54.1165457,167.421212 L53.5743821,168.154087 L53.0168211,168.955479 L52.447441,169.826798 L51.8698199,170.769453 L51.2877532,171.784637 L50.7048189,172.873325 L50.1251376,174.036276 L49.5521792,175.274358 L48.9901725,176.588004 L48.4429126,177.977539 L47.9143032,179.443181 L47.7343049,180.74837 L52.2272141,186.459375 L53.538274,186.591964 L55.0874521,186.423598 L56.5671249,186.21913 L57.9763164,185.982464 L59.3147013,185.717501 L60.5817375,185.428037 L61.7773165,185.118192 L62.9012216,184.791759 L63.953561,184.452533 L64.9346601,184.104526 L65.8450612,183.751531 L66.6850894,183.397345 L67.4557206,183.04576 L68.157714,182.700355 L68.7922622,182.365032 L69.360558,182.043152 L69.8639026,181.73851 L70.6821359,181.194275 L71.2608412,180.759103 L71.7159333,180.366321 L79.1453088,172.576706 L91.6313352,181.920103 L86.2843014,191.18013 L86.0021595,191.790173 L85.7477764,192.467974 L85.4562009,193.406292 L85.3056963,193.975029 L85.1571434,194.610874 L85.0141207,195.314152 L84.8807485,196.084972 L84.7604966,196.923333 L84.6574855,197.829019 L84.575402,198.801813 L84.5180411,199.841065 L84.489198,200.946232 L84.4927762,202.116338 L84.5324626,203.350517 L84.6119438,204.647576 L84.7350149,206.006105 L84.9051458,207.424695 L85.1261317,208.90172 L85.4013339,210.435228 L85.8981726,211.65553 L92.6450726,214.355351 L93.8467239,213.814693 L95.104218,212.894479 L96.2834237,211.977735 L97.3855337,211.068255 L98.4120662,210.169724 L99.3646475,209.28572 L100.245013,208.419714 L101.055005,207.575064 L101.796793,206.755242 L102.472437,205.96339 L103.084323,205.202653 L103.634728,204.475849 L104.126145,203.786122 L104.561502,203.136075 L104.943294,202.528418 L105.274447,201.965752 L105.557999,201.450246 L105.99444,200.56982 L106.2781,199.903619 L106.475773,199.335967 L109.014291,188.875911 L124.5,190.725661 L124.500108,201.418156 L124.560939,202.0875 L124.679565,202.80162 L124.896322,203.760103 L125.050404,204.327864 L125.239728,204.95276 L125.467545,205.633271 L125.737434,206.367555 L126.052648,207.153661 L126.416331,207.989529 L126.831629,208.87299 L127.301793,209.80166 L127.829426,210.773153 L128.417782,211.784759 L129.069246,212.833768 L129.786745,213.917252 L130.572665,215.032284 L131.429501,216.17583 L132.35942,217.344418 L133.364699,218.535015 L134.405328,219.343454 L141.598429,218.308648 L142.368734,217.239691 L142.997536,215.814162 L143.560302,214.430806 L144.059959,213.092117 L144.499546,211.800804 L144.882422,210.559037 L145.211732,209.368874 L145.490946,208.232484 L145.723317,207.15171 L145.912424,206.128178 L146.061844,205.163407 L146.175048,204.258913 L146.25583,203.41589 L146.30777,202.635313 L146.334552,201.918267 L146.339866,201.265293 L146.327613,200.67715 L146.265372,199.69655 L146.177759,198.977877 L146.065097,198.387349 L143.03256,188.059666 L144.425742,187.463023 C148.974429,186.086645 153.313214,184.227003 157.382365,181.943828 L162.715915,191.180022 L163.103345,191.729244 L163.563317,192.288441 L164.230287,193.010041 L164.647644,193.424723 L165.124097,193.871386 L165.661707,194.346779 L166.262641,194.847758 L166.928743,195.370961 L167.661748,195.913028 L168.463283,196.47049 L169.334756,197.039769 L170.277579,197.617288 L171.292943,198.199251 L172.381824,198.782082 L173.544982,199.361661 L174.783283,199.934517 L176.097162,200.496424 L177.486944,201.043587 L178.952846,201.572103 L180.258267,201.752069 L185.970286,197.259957 L186.102899,195.94913 L185.934503,194.400227 L185.729999,192.920817 L185.49329,191.511875 L185.228281,190.173728 L184.938765,188.906917 L184.628865,187.71155 L184.302374,186.587844 L183.963088,185.535692 L183.615019,184.554767 L183.261962,183.644527 L182.907712,182.804648 L182.556065,182.034154 L182.210598,181.332285 L181.875216,180.69785 L181.553279,180.129655 L181.248583,179.626399 L180.704251,178.808311 L180.269002,178.229709 L179.876151,177.774697 L172.257811,170.511256 C175.902218,166.767659 179.100881,162.587958 181.768088,158.057864 L190.69188,163.208915 L191.30203,163.491007 L191.979952,163.745345 L192.918437,164.036869 L193.487275,164.187347 L194.123233,164.335873 L194.826636,164.47887 L195.597592,164.612219 L196.436102,164.73245 L197.341949,164.835442 L198.314916,164.917511 L199.354352,164.974862 L200.459715,165.0037 L201.630029,165.000122 L202.864427,164.960443 L204.161716,164.880976 L205.520486,164.757927 L206.939328,164.587826 L208.416615,164.366879 L209.950396,164.091726 L211.170915,163.594975 L213.871214,156.849273 L213.33046,155.647835 L212.410084,154.390564 L211.493177,153.211568 L210.583535,152.109653 L209.684844,151.083303 L208.800684,150.130891 L207.934524,149.250682 L207.089724,148.440833 L206.269756,147.699177 L205.477764,147.023653 L204.716891,146.411875 L203.989959,145.861569 L203.30011,145.370239 L202.649947,144.934959 L202.042182,144.553235 L201.479416,144.22214 L200.963818,143.938639 L200.083236,143.502275 L199.416917,143.218665 L198.849164,143.021028 L188.873213,140.600855 C189.298969,138.865477 189.655304,137.102827 189.939107,135.316018"/>
      <path id="marks" stroke="#000000" d="M125,124.5 L87.5,124.5 L87,124.5 L87,125.5 L87.5,125.5 L125,125.5 L125,163 L125,163.5 L126,163.5 L126,163 L126,125.5 L163.5,125.5 L164,125.5 L164,124.5 L163.5,124.5 L126,124.5 L126,87 L126,86.5 L125,86.5 L125,87 L125,124.5 Z" stroke-linecap="square" transform="translate(125.500000, 125.000000) rotate(45.000000) translate(-125.500000, -125.000000)"/>
    </g>
  </g>
</svg>
