<svg xmlns="http://www.w3.org/2000/svg" width="981" height="980" viewBox="0 0 981 980" version="1.1">
  <g id="Symbols" fill="none" fill-rule="evenodd" stroke="none" stroke-width="1" opacity=".1">
    <g id="assets/images/gear-xl">
      <polyline id="gear-xl" fill="#000000" points="881.521 493.412 881.335 502.524 884.105 504.595 886.918 505.456 889.371 506.277 891.998 507.225 894.796 508.308 897.759 509.536 900.086 510.556 902.501 511.665 905.001 512.867 907.584 514.164 909.9 515.539 909.172 525.522 906.682 526.547 903.938 527.456 901.29 528.282 898.74 529.03 895.495 529.91 892.431 530.664 889.552 531.303 886.862 531.834 884.365 532.267 881.518 532.685 879.022 534.259 877.885 543.301 880.423 545.65 883.131 546.8 885.484 547.873 887.998 549.091 890.667 550.461 893.485 551.992 895.693 553.249 897.979 554.605 900.34 556.061 902.773 557.621 904.932 559.231 903.165 569.082 900.581 569.841 897.758 570.459 895.038 571.004 892.423 571.481 889.104 572.017 885.978 572.447 883.048 572.781 880.318 573.029 877.788 573.198 874.913 573.316 872.267 574.621 870.19 583.495 872.469 586.096 875.041 587.523 877.27 588.836 879.643 590.31 882.154 591.951 884.797 593.768 886.861 595.249 888.993 596.836 891.189 598.532 893.445 600.337 895.424 602.164 892.637 611.777 889.988 612.262 887.115 612.58 884.353 612.838 881.703 613.039 878.346 613.226 875.192 613.327 872.243 613.353 869.502 613.314 866.969 613.218 864.097 613.035 861.328 614.056 858.336 622.664 860.33 625.489 862.739 627.177 864.818 628.716 867.024 630.429 869.35 632.324 871.788 634.407 873.687 636.097 875.641 637.898 877.647 639.813 879.703 641.845 881.48 643.868 877.702 653.137 875.017 653.342 872.127 653.359 869.353 653.327 866.697 653.25 863.338 653.084 860.191 652.855 857.256 652.573 854.534 652.247 852.025 651.888 849.188 651.405 846.327 652.132 842.451 660.38 844.139 663.398 846.359 665.328 848.265 667.076 850.28 669.01 852.395 671.138 854.602 673.465 856.314 675.343 858.069 677.338 859.864 679.453 861.696 681.688 863.252 683.886 858.526 692.71 855.834 692.633 852.958 692.348 850.202 692.026 847.568 691.672 844.246 691.156 841.14 690.6 838.25 690.012 835.577 689.404 833.119 688.784 830.349 688.008 827.428 688.431 822.711 696.229 824.074 699.407 826.079 701.559 827.793 703.496 829.594 705.63 831.475 707.967 833.427 710.512 834.933 712.559 836.47 714.727 838.034 717.017 839.622 719.432 840.94 721.78 835.317 730.062 832.648 729.704 829.817 729.12 827.111 728.512 824.528 727.884 821.278 727.024 818.247 726.146 815.435 725.26 812.84 724.375 810.46 723.502 807.786 722.44 804.837 722.556 799.33 729.818 800.353 733.121 802.123 735.471 803.625 737.577 805.193 739.888 806.82 742.409 808.495 745.143 809.778 747.336 811.08 749.653 812.396 752.094 813.723 754.662 814.788 757.135 808.331 764.783 805.714 764.149 802.959 763.272 800.331 762.384 797.829 761.49 794.686 760.295 791.763 759.105 789.059 757.93 786.571 756.779 784.296 755.662 781.747 754.327 778.802 754.133 772.566 760.78 773.239 764.172 774.753 766.694 776.026 768.945 777.344 771.407 778.698 774.084 780.079 776.979 781.126 779.294 782.178 781.734 783.232 784.3 784.283 786.992 785.084 789.563 777.862 796.494 775.325 795.59 772.678 794.43 770.157 793.273 767.762 792.122 764.761 790.605 761.979 789.116 759.412 787.664 757.058 786.26 754.912 784.911 752.517 783.317 749.608 782.817 742.712 788.775 743.026 792.219 744.269 794.885 745.299 797.257 746.353 799.844 747.42 802.648 748.49 805.671 749.289 808.082 750.08 810.619 750.86 813.281 751.624 816.068 752.151 818.708 744.245 824.847 741.817 823.683 739.305 822.253 736.919 820.838 734.657 819.443 731.831 817.621 729.22 815.849 726.82 814.138 724.625 812.495 722.632 810.929 720.416 809.093 717.576 808.292 710.094 813.497 710.047 816.955 711.004 819.736 711.781 822.203 712.558 824.885 713.326 827.785 714.074 830.904 714.617 833.386 715.139 835.991 715.636 838.72 716.104 841.572 716.353 844.253 707.848 849.532 705.555 848.12 703.206 846.435 700.981 844.779 698.877 843.155 696.258 841.047 693.846 839.013 691.637 837.06 689.627 835.196 687.808 833.431 685.797 831.373 683.056 830.28 675.071 834.675 674.662 838.108 675.323 840.975 675.838 843.509 676.331 846.258 676.791 849.222 677.209 852.402 677.489 854.927 677.736 857.573 677.945 860.338 678.113 863.223 678.08 865.916 669.069 870.277 666.936 868.633 664.777 866.712 662.737 864.833 660.814 862.998 658.43 860.628 656.244 858.352 654.252 856.179 652.447 854.116 650.823 852.17 649.037 849.914 646.426 848.54 638.025 852.076 637.259 855.448 637.617 858.368 637.864 860.942 638.067 863.727 638.215 866.724 638.298 869.929 638.313 872.47 638.281 875.127 638.2 877.899 638.066 880.786 637.751 883.46 628.334 886.856 626.385 884.998 624.438 882.862 622.606 880.779 620.886 878.754 618.762 876.148 616.826 873.656 615.072 871.287 613.492 869.046 612.081 866.941 610.541 864.511 608.087 862.871 599.363 865.51 598.249 868.784 598.299 871.725 598.276 874.311 598.186 877.102 598.02 880.098 597.768 883.294 597.517 885.823 597.208 888.462 596.838 891.21 596.402 894.067 595.809 896.694 586.089 899.087 584.345 897.035 582.632 894.708 581.027 892.445 579.528 890.251 577.689 887.437 576.024 884.757 574.527 882.217 573.19 879.823 572.007 877.582 570.729 875.004 568.461 873.117 559.508 874.83 558.058 877.969 557.801 880.9 557.507 883.469 557.126 886.236 556.648 889.197 556.063 892.35 555.549 894.838 554.966 897.431 554.31 900.126 553.578 902.921 552.714 905.472 542.797 906.836 541.276 904.613 539.816 902.119 538.457 899.701 537.196 897.362 535.66 894.372 534.285 891.532 533.061 888.85 531.982 886.33 531.039 883.977 530.039 881.28 527.98 879.166 518.897 879.934 517.127 882.905 516.565 885.792 516.004 888.316 515.336 891.028 514.55 893.923 513.639 896.998 512.868 899.419 512.017 901.936 511.083 904.548 510.062 907.252 508.937 909.698 498.931 910.018 497.651 907.648 496.46 905.015 495.361 902.469 494.351 900.011 493.137 896.876 492.066 893.908 491.13 891.113 490.32 888.494 489.628 886.056 488.915 883.269 487.088 880.951 477.975 880.765 475.904 883.535 475.043 886.347 474.222 888.8 473.274 891.427 472.19 894.224 470.962 897.186 469.942 899.513 468.832 901.928 467.63 904.428 466.333 907.01 464.958 909.325 454.973 908.598 453.948 906.108 453.039 903.365 452.212 900.717 451.465 898.167 450.585 894.923 449.83 891.859 449.191 888.981 448.66 886.292 448.227 883.795 447.809 880.948 446.234 878.453 437.191 877.316 434.841 879.853 433.691 882.561 432.618 884.914 431.4 887.427 430.03 890.096 428.499 892.914 427.241 895.121 425.885 897.407 424.429 899.767 422.868 902.2 421.258 904.359 411.405 902.592 410.646 900.008 410.028 897.185 409.483 894.466 409.006 891.851 408.47 888.533 408.039 885.407 407.705 882.478 407.458 879.748 407.288 877.219 407.17 874.345 405.865 871.698 396.99 869.622 394.388 871.901 392.961 874.473 391.648 876.701 390.174 879.073 388.532 881.584 386.715 884.227 385.233 886.291 383.646 888.422 381.95 890.617 380.144 892.873 378.318 894.852 368.703 892.065 368.218 889.416 367.899 886.544 367.641 883.783 367.44 881.133 367.254 877.776 367.152 874.623 367.126 871.675 367.166 868.934 367.261 866.402 367.444 863.531 366.423 860.762 357.814 857.77 354.988 859.764 353.3 862.173 351.761 864.251 350.047 866.457 348.152 868.782 346.068 871.22 344.379 873.118 342.577 875.072 340.662 877.078 338.63 879.133 336.606 880.91 327.335 877.133 327.13 874.449 327.113 871.559 327.145 868.785 327.222 866.129 327.388 862.772 327.617 859.625 327.899 856.69 328.225 853.969 328.585 851.46 329.067 848.624 328.341 845.764 320.091 841.888 317.072 843.576 315.142 845.795 313.394 847.701 311.459 849.716 309.331 851.83 307.004 854.037 305.125 855.748 303.129 857.503 301.015 859.298 298.779 861.129 296.581 862.685 287.755 857.96 287.832 855.269 288.117 852.393 288.439 849.638 288.793 847.004 289.309 843.683 289.866 840.577 290.453 837.688 291.062 835.015 291.682 832.558 292.458 829.788 292.035 826.867 284.236 822.151 281.057 823.514 278.905 825.519 276.967 827.232 274.832 829.034 272.495 830.914 269.95 832.866 267.903 834.371 265.734 835.908 263.444 837.471 261.029 839.059 258.68 840.377 250.397 834.755 250.754 832.087 251.339 829.256 251.947 826.55 252.575 823.968 253.435 820.718 254.313 817.688 255.199 814.876 256.084 812.282 256.958 809.903 258.019 807.229 257.904 804.28 250.64 798.775 247.337 799.798 244.986 801.567 242.88 803.069 240.569 804.637 238.047 806.263 235.313 807.938 233.119 809.221 230.802 810.522 228.36 811.838 225.792 813.165 223.319 814.23 215.669 807.774 216.304 805.157 217.181 802.403 218.068 799.775 218.963 797.273 220.158 794.131 221.348 791.209 222.524 788.505 223.675 786.017 224.792 783.743 226.127 781.194 226.321 778.25 219.673 772.015 216.28 772.688 213.758 774.202 211.506 775.475 209.044 776.793 206.366 778.146 203.471 779.526 201.155 780.573 198.715 781.625 196.149 782.679 193.457 783.73 190.885 784.53 183.952 777.31 184.857 774.774 186.017 772.127 187.174 769.607 188.325 767.211 189.843 764.211 191.332 761.43 192.784 758.864 194.188 756.51 195.538 754.364 197.132 751.97 197.632 749.061 191.672 742.166 188.228 742.48 185.561 743.723 183.189 744.753 180.602 745.807 177.798 746.873 174.774 747.943 172.362 748.742 169.825 749.533 167.163 750.313 164.375 751.077 161.734 751.604 155.594 743.699 156.759 741.271 158.189 738.76 159.604 736.374 160.999 734.113 162.822 731.287 164.594 728.677 166.305 726.277 167.949 724.082 169.515 722.09 171.351 719.875 172.152 717.035 166.946 709.554 163.488 709.507 160.706 710.463 158.239 711.241 155.556 712.018 152.655 712.785 149.537 713.533 147.054 714.076 144.448 714.598 141.719 715.095 138.867 715.563 136.185 715.812 130.905 707.308 132.317 705.015 134.002 702.667 135.659 700.443 137.283 698.339 139.391 695.72 141.426 693.309 143.379 691.101 145.243 689.09 147.009 687.272 149.067 685.261 150.16 682.52 145.765 674.537 142.33 674.128 139.464 674.789 136.929 675.304 134.179 675.796 131.214 676.257 128.035 676.675 125.509 676.955 122.863 677.201 120.097 677.411 117.211 677.578 114.518 677.545 110.156 668.536 111.8 666.404 113.722 664.245 115.601 662.205 117.436 660.283 119.807 657.899 122.083 655.713 124.256 653.721 126.32 651.917 128.266 650.293 130.523 648.508 131.897 645.897 128.36 637.498 124.988 636.732 122.067 637.09 119.493 637.337 116.707 637.54 113.71 637.687 110.504 637.771 107.963 637.785 105.305 637.754 102.532 637.673 99.645 637.538 96.97 637.224 93.574 627.808 95.432 625.859 97.569 623.913 99.652 622.081 101.677 620.361 104.284 618.238 106.776 616.302 109.146 614.548 111.387 612.969 113.492 611.558 115.923 610.019 117.563 607.565 114.924 598.842 111.649 597.729 108.708 597.779 106.121 597.756 103.329 597.666 100.334 597.5 97.136 597.248 94.608 596.997 91.968 596.688 89.219 596.317 86.361 595.882 83.734 595.29 81.341 585.571 83.393 583.827 85.721 582.114 87.984 580.51 90.178 579.011 92.993 577.172 95.673 575.507 98.214 574.011 100.608 572.674 102.849 571.491 105.428 570.214 107.315 567.946 105.602 558.995 102.462 557.545 99.531 557.288 96.961 556.994 94.194 556.613 91.232 556.135 88.079 555.55 85.59 555.036 82.997 554.453 80.302 553.797 77.505 553.065 74.955 552.202 73.59 542.286 75.813 540.766 78.308 539.306 80.726 537.947 83.065 536.686 86.057 535.151 88.897 533.776 91.58 532.553 94.1 531.474 96.453 530.531 99.151 529.531 101.265 527.472 100.497 518.391 97.526 516.621 94.638 516.059 92.113 515.499 89.401 514.83 86.505 514.045 83.43 513.134 81.009 512.362 78.491 511.512 75.879 510.578 73.174 509.558 70.728 508.432 70.408 498.428 72.777 497.149 75.411 495.958 77.958 494.859 80.416 493.849 83.552 492.635 86.52 491.564 89.316 490.628 91.935 489.819 94.374 489.127 97.162 488.414 99.479 486.588 99.665 477.476 96.895 475.405 94.082 474.544 91.629 473.723 89.002 472.775 86.204 471.692 83.241 470.464 80.914 469.444 78.499 468.335 75.999 467.133 73.416 465.836 71.1 464.461 71.828 454.478 74.318 453.453 77.062 452.544 79.71 451.718 82.26 450.97 85.505 450.09 88.569 449.336 91.448 448.697 94.138 448.166 96.635 447.733 99.482 447.315 101.978 445.741 103.115 436.699 100.577 434.35 97.869 433.2 95.516 432.127 93.002 430.909 90.333 429.539 87.515 428.008 85.307 426.751 83.021 425.395 80.66 423.939 78.227 422.379 76.068 420.769 77.835 410.918 80.419 410.159 83.242 409.541 85.962 408.996 88.577 408.519 91.896 407.983 95.022 407.553 97.952 407.219 100.682 406.971 103.212 406.802 106.087 406.684 108.733 405.379 110.81 396.505 108.531 393.904 105.959 392.477 103.73 391.164 101.357 389.69 98.846 388.049 96.203 386.232 94.139 384.751 92.007 383.164 89.811 381.468 87.555 379.663 85.576 377.836 88.363 368.223 91.012 367.738 93.885 367.42 96.647 367.162 99.297 366.961 102.654 366.774 105.808 366.673 108.757 366.647 111.498 366.686 114.031 366.782 116.903 366.965 119.672 365.944 122.664 357.336 120.67 354.511 118.261 352.823 116.182 351.284 113.976 349.571 111.65 347.676 109.212 345.593 107.313 343.903 105.359 342.102 103.353 340.187 101.297 338.155 99.52 336.132 103.298 326.863 105.983 326.658 108.873 326.641 111.647 326.673 114.303 326.75 117.662 326.916 120.809 327.145 123.744 327.427 126.466 327.753 128.975 328.112 131.812 328.595 134.673 327.868 138.549 319.62 136.861 316.602 134.641 314.672 132.735 312.924 130.72 310.99 128.605 308.862 126.398 306.535 124.686 304.657 122.931 302.662 121.136 300.547 119.304 298.312 117.748 296.114 122.474 287.29 125.166 287.367 128.042 287.652 130.798 287.974 133.432 288.328 136.754 288.844 139.86 289.4 142.75 289.988 145.423 290.596 147.881 291.216 150.651 291.992 153.572 291.569 158.289 283.771 156.926 280.593 154.921 278.441 153.207 276.504 151.406 274.37 149.525 272.033 147.573 269.488 146.067 267.441 144.53 265.273 142.966 262.983 141.378 260.568 140.06 258.22 145.683 249.938 148.352 250.296 151.183 250.88 153.889 251.488 156.472 252.116 159.722 252.976 162.753 253.854 165.565 254.74 168.16 255.625 170.54 256.498 173.214 257.56 176.163 257.444 181.67 250.182 180.647 246.879 178.877 244.529 177.375 242.423 175.807 240.112 174.18 237.591 172.505 234.857 171.222 232.664 169.92 230.347 168.604 227.906 167.277 225.338 166.212 222.865 172.669 215.217 175.286 215.851 178.041 216.728 180.669 217.616 183.171 218.51 186.314 219.705 189.237 220.895 191.941 222.07 194.429 223.221 196.704 224.338 199.253 225.673 202.198 225.867 208.434 219.22 207.761 215.828 206.247 213.306 204.974 211.055 203.656 208.593 202.302 205.916 200.921 203.021 199.874 200.706 198.822 198.266 197.768 195.7 196.717 193.008 195.916 190.437 203.138 183.506 205.675 184.41 208.322 185.57 210.843 186.727 213.238 187.878 216.239 189.395 219.021 190.884 221.588 192.336 223.942 193.74 226.088 195.089 228.483 196.683 231.392 197.183 238.288 191.225 237.974 187.781 236.731 185.115 235.701 182.743 234.647 180.156 233.58 177.352 232.51 174.329 231.711 171.918 230.92 169.381 230.14 166.719 229.376 163.932 228.849 161.292 236.755 155.153 239.183 156.317 241.695 157.747 244.081 159.162 246.343 160.557 249.169 162.379 251.78 164.151 254.18 165.862 256.375 167.505 258.368 169.071 260.584 170.907 263.424 171.708 270.906 166.503 270.953 163.045 269.996 160.264 269.219 157.797 268.442 155.115 267.674 152.215 266.926 149.096 266.383 146.614 265.861 144.009 265.364 141.28 264.896 138.428 264.647 135.747 273.152 130.468 275.445 131.88 277.794 133.565 280.019 135.221 282.123 136.845 284.742 138.953 287.154 140.987 289.363 142.94 291.373 144.804 293.192 146.569 295.203 148.627 297.944 149.72 305.929 145.325 306.338 141.892 305.677 139.025 305.162 136.491 304.669 133.742 304.209 130.778 303.791 127.598 303.511 125.073 303.264 122.427 303.055 119.662 302.887 116.777 302.92 114.084 311.931 109.723 314.064 111.367 316.223 113.288 318.263 115.167 320.186 117.002 322.57 119.372 324.756 121.648 326.748 123.821 328.553 125.884 330.177 127.83 331.963 130.086 334.574 131.46 342.975 127.924 343.741 124.552 343.383 121.632 343.136 119.058 342.933 116.273 342.785 113.276 342.702 110.071 342.687 107.53 342.719 104.873 342.8 102.101 342.934 99.214 343.249 96.54 352.666 93.144 354.615 95.002 356.562 97.138 358.394 99.221 360.114 101.246 362.238 103.852 364.174 106.344 365.928 108.713 367.508 110.954 368.919 113.059 370.459 115.489 372.913 117.129 381.637 114.49 382.751 111.216 382.701 108.275 382.724 105.689 382.814 102.898 382.98 99.902 383.232 96.706 383.483 94.177 383.792 91.538 384.162 88.79 384.598 85.933 385.191 83.306 394.911 80.913 396.655 82.964 398.368 85.292 399.973 87.555 401.472 89.749 403.311 92.563 404.976 95.243 406.473 97.783 407.81 100.177 408.993 102.418 410.271 104.996 412.539 106.883 421.492 105.17 422.942 102.031 423.199 99.1 423.493 96.531 423.874 93.764 424.352 90.803 424.937 87.65 425.451 85.162 426.034 82.569 426.69 79.874 427.422 77.079 428.286 74.528 438.203 73.164 439.724 75.387 441.184 77.881 442.543 80.299 443.804 82.638 445.34 85.628 446.715 88.468 447.939 91.15 449.018 93.67 449.961 96.023 450.961 98.72 453.02 100.834 462.103 100.066 463.873 97.095 464.435 94.208 464.996 91.684 465.664 88.972 466.45 86.077 467.361 83.002 468.132 80.581 468.983 78.064 469.917 75.452 470.938 72.748 472.063 70.302 482.069 69.982 483.349 72.352 484.54 74.985 485.639 77.531 486.649 79.989 487.863 83.124 488.934 86.092 489.87 88.887 490.68 91.506 491.372 93.944 492.085 96.731 493.912 99.049 503.025 99.235 505.096 96.465 505.957 93.653 506.778 91.2 507.726 88.573 508.81 85.776 510.038 82.814 511.058 80.487 512.168 78.072 513.37 75.572 514.667 72.99 516.042 70.675 526.027 71.402 527.052 73.892 527.961 76.635 528.788 79.283 529.535 81.833 530.415 85.077 531.17 88.141 531.809 91.019 532.34 93.708 532.773 96.205 533.191 99.052 534.766 101.547 543.809 102.684 546.159 100.147 547.309 97.439 548.382 95.086 549.6 92.573 550.97 89.904 552.501 87.086 553.759 84.879 555.115 82.593 556.571 80.233 558.132 77.8 559.742 75.641 569.595 77.408 570.354 79.992 570.972 82.815 571.517 85.534 571.994 88.149 572.53 91.467 572.961 94.593 573.295 97.522 573.542 100.252 573.712 102.781 573.83 105.655 575.135 108.302 584.01 110.378 586.612 108.099 588.039 105.527 589.352 103.299 590.826 100.927 592.468 98.416 594.285 95.773 595.767 93.709 597.354 91.578 599.05 89.383 600.856 87.127 602.682 85.148 612.297 87.935 612.782 90.584 613.101 93.456 613.359 96.217 613.56 98.867 613.746 102.224 613.848 105.377 613.874 108.325 613.834 111.066 613.739 113.598 613.556 116.469 614.577 119.238 623.186 122.23 626.012 120.236 627.7 117.827 629.239 115.749 630.953 113.543 632.848 111.218 634.932 108.78 636.621 106.882 638.423 104.928 640.338 102.922 642.37 100.867 644.394 99.09 653.665 102.867 653.87 105.551 653.887 108.441 653.855 111.215 653.778 113.871 653.612 117.228 653.383 120.375 653.101 123.31 652.775 126.031 652.415 128.54 651.933 131.376 652.659 134.236 660.909 138.112 663.928 136.424 665.858 134.205 667.606 132.299 669.541 130.284 671.669 128.17 673.996 125.963 675.875 124.252 677.871 122.497 679.985 120.702 682.221 118.871 684.419 117.315 693.245 122.04 693.168 124.731 692.883 127.607 692.561 130.362 692.207 132.996 691.691 136.317 691.134 139.423 690.547 142.312 689.938 144.985 689.318 147.442 688.542 150.212 688.965 153.133 696.764 157.849 699.943 156.486 702.095 154.481 704.033 152.768 706.168 150.966 708.505 149.086 711.05 147.134 713.097 145.629 715.266 144.092 717.556 142.529 719.971 140.941 722.32 139.623 730.603 145.245 730.246 147.913 729.661 150.744 729.053 153.45 728.425 156.032 727.565 159.282 726.687 162.312 725.801 165.124 724.916 167.718 724.042 170.097 722.981 172.771 723.096 175.72 730.36 181.225 733.663 180.202 736.014 178.433 738.12 176.931 740.431 175.363 742.953 173.737 745.687 172.062 747.881 170.779 750.198 169.478 752.64 168.162 755.208 166.835 757.681 165.77 765.331 172.226 764.696 174.843 763.819 177.597 762.932 180.225 762.037 182.727 760.842 185.869 759.652 188.791 758.476 191.495 757.325 193.983 756.208 196.257 754.873 198.806 754.679 201.75 761.327 207.985 764.72 207.312 767.242 205.798 769.494 204.525 771.956 203.207 774.634 201.854 777.529 200.474 779.845 199.427 782.285 198.375 784.851 197.321 787.543 196.27 790.115 195.47 797.048 202.69 796.143 205.226 794.983 207.873 793.826 210.393 792.675 212.789 791.157 215.789 789.668 218.57 788.216 221.136 786.812 223.49 785.462 225.636 783.868 228.03 783.368 230.939 789.328 237.834 792.772 237.52 795.439 236.277 797.811 235.247 800.398 234.193 803.202 233.127 806.226 232.057 808.638 231.258 811.175 230.467 813.837 229.687 816.625 228.923 819.266 228.396 825.406 236.301 824.241 238.729 822.811 241.24 821.396 243.626 820.001 245.887 818.178 248.713 816.406 251.323 814.695 253.723 813.051 255.918 811.485 257.91 809.649 260.125 808.848 262.965 814.054 270.446 817.512 270.493 820.294 269.537 822.761 268.759 825.444 267.982 828.345 267.215 831.463 266.467 833.946 265.924 836.552 265.402 839.281 264.905 842.133 264.437 844.815 264.188 850.095 272.692 848.683 274.985 846.998 277.333 845.341 279.557 843.717 281.661 841.609 284.28 839.574 286.691 837.621 288.899 835.757 290.91 833.991 292.728 831.933 294.739 830.84 297.48 835.235 305.463 838.67 305.872 841.536 305.211 844.071 304.696 846.821 304.204 849.786 303.743 852.965 303.325 855.491 303.045 858.137 302.799 860.903 302.589 863.789 302.422 866.482 302.455 870.844 311.464 869.2 313.596 867.278 315.755 865.399 317.795 863.564 319.717 861.193 322.101 858.917 324.287 856.744 326.279 854.68 328.083 852.734 329.707 850.477 331.492 849.103 334.103 852.64 342.502 856.012 343.268 858.933 342.91 861.507 342.663 864.293 342.46 867.29 342.313 870.496 342.229 873.037 342.215 875.695 342.246 878.468 342.327 881.355 342.462 884.03 342.776 887.426 352.192 885.568 354.141 883.431 356.087 881.348 357.919 879.323 359.639 876.716 361.762 874.224 363.698 871.854 365.452 869.613 367.031 867.508 368.442 865.077 369.981 863.437 372.435 866.076 381.158 869.351 382.271 872.292 382.221 874.879 382.244 877.671 382.334 880.666 382.5 883.864 382.752 886.392 383.003 889.032 383.312 891.781 383.683 894.639 384.118 897.266 384.71 899.659 394.429 897.607 396.173 895.279 397.886 893.016 399.49 890.822 400.989 888.007 402.828 885.327 404.493 882.786 405.989 880.392 407.326 878.151 408.509 875.572 409.786 873.685 412.054 875.398 421.005 878.538 422.455 881.469 422.712 884.039 423.006 886.806 423.387 889.768 423.865 892.921 424.45 895.41 424.964 898.003 425.547 900.698 426.203 903.495 426.935 906.045 427.798 907.41 437.714 905.187 439.234 902.692 440.694 900.274 442.053 897.935 443.314 894.943 444.849 892.103 446.224 889.42 447.447 886.9 448.526 884.547 449.469 881.849 450.469 879.735 452.528 880.503 461.609 883.474 463.379 886.362 463.941 888.887 464.501 891.599 465.17 894.495 465.955 897.57 466.866 899.991 467.638 902.509 468.488 905.121 469.422 907.826 470.442 910.272 471.568 910.592 481.572 908.223 482.851 905.589 484.042 903.042 485.141 900.584 486.151 897.448 487.365 894.48 488.436 891.684 489.372 889.065 490.181 886.626 490.873 883.838 491.586"/>
      <path id="marks" stroke="#000000" d="M490,489.5 L452.5,489.5 L452,489.5 L452,490.5 L452.5,490.5 L490,490.5 L490,528 L490,528.5 L491,528.5 L491,528 L491,490.5 L528.5,490.5 L529,490.5 L529,489.5 L528.5,489.5 L491,489.5 L491,452 L491,451.5 L490,451.5 L490,452 L490,489.5 Z" stroke-linecap="square" transform="translate(490.500000, 490.000000) rotate(45.000000) translate(-490.500000, -490.000000)"/>
    </g>
  </g>
</svg>
