<svg xmlns="http://www.w3.org/2000/svg" width="330" height="330" viewBox="0 0 330 330" version="1.1">
  <g id="Symbols" fill="none" fill-rule="evenodd" stroke="none" stroke-width="1" opacity=".1">
    <g id="assets/images/gear-m">
      <path id="gear-m" fill="#000000" d="M253.49435,166.010484 L253.603619,165.181744 L270.256823,165.181527 L270.367858,165.177624 L270.58429,165.163205 L270.905468,165.131765 L271.330415,165.076583 L271.857832,164.991044 L272.486091,164.868646 L273.213458,164.702881 L274.037438,164.487464 L274.955755,164.215997 L275.96548,163.882408 L277.063361,163.48052 L278.246145,163.004584 L279.510145,162.448857 L280.851349,161.807591 L282.26542,161.075584 L283.748021,160.247413 L285.294163,159.318202 L286.899075,158.28307 L288.557337,157.137465 L290.263525,155.876941 L292.011894,154.49738 L293.796588,152.994878 L295.611426,151.365966 L296.408732,149.729681 L294.891216,139.989166 L293.633939,138.672918 L291.409442,137.67302 L289.252282,136.784464 L287.167012,136.001935 L285.158188,135.320015 L283.230038,134.732956 L281.386248,134.234904 L279.630614,133.819897 L277.966389,133.481864 L276.396608,133.214517 L274.923875,133.011567 L273.550683,132.866509 L272.279202,132.77284 L271.111056,132.723946 L270.047656,132.713213 L269.090304,132.733811 L268.239758,132.779128 L267.49656,132.842442 L266.860711,132.916922 L266.332318,132.995847 L265.910623,133.072495 L265.595084,133.140253 L265.384616,133.1924 L265.277593,133.222322 L249.413346,138.286424 L249.363068,138.179682 C247.008825,130.767843 243.704853,123.779093 239.594103,117.356381 L253.573475,108.37374 L253.664667,108.310427 L253.839027,108.181306 L254.092217,107.981284 L254.419792,107.705154 L254.817307,107.348041 L255.279664,106.905497 L255.801876,106.372861 L256.378629,105.746232 L257.004394,105.021488 L257.673316,104.195052 L258.379755,103.263563 L259.117422,102.22377 L259.880247,101.073069 L260.661721,99.8086431 L261.455557,98.4284314 L262.254923,96.9303742 L263.053205,95.3128453 L263.843571,93.5745439 L264.619081,91.7143857 L265.372797,89.7317203 L266.09767,87.6260056 L266.786651,85.3973501 L267.432476,83.0459706 L267.21843,81.2385013 L260.674733,73.8645429 L258.905328,73.4368518 L256.493351,73.7980855 L254.198156,74.2166698 L252.020827,74.6855581 L249.962124,75.1977032 L248.022479,75.7461669 L246.202111,76.3237939 L244.500802,76.9236456 L242.91801,77.5388919 L241.452867,78.1625946 L240.104181,78.7879234 L238.870542,79.4081569 L237.750215,80.0166816 L236.741032,80.6069929 L235.840715,81.1726944 L235.046445,81.707498 L234.355512,82.205441 L233.764446,82.6604523 L233.269884,83.0667859 L232.867924,83.4188044 L232.55477,83.7111956 L232.325869,83.9387554 L232.176991,84.0963886 L232.103148,84.1794333 L221.563842,96.9325042 C215.64033,92.0046643 209.063378,87.8354125 201.982103,84.5738661 L208.820477,69.6021593 L208.862982,69.4994917 L208.939753,69.2966501 L209.044607,68.9915746 L209.170931,68.582097 L209.312219,68.0669162 L209.461856,67.444623 L209.613228,66.7143499 L209.759504,65.8753381 L209.894069,64.9274792 L210.009984,63.8705564 L210.100417,62.7051117 L210.158862,61.4316871 L210.178271,60.0512585 L210.15203,58.5651268 L210.073417,56.9749181 L209.935924,55.282584 L209.73283,53.4904011 L209.457736,51.6007544 L209.104354,49.6166797 L208.666286,47.5413208 L208.137459,45.378147 L207.511911,43.1308444 L206.783785,40.803641 L205.626375,39.3987109 L196.134067,36.7326071 L194.414324,37.3292064 L192.58051,38.9368696 L190.876056,40.5296802 L189.297818,42.1011333 L187.842868,43.6447242 L186.507736,45.1545984 L185.288736,46.6244681 L184.181855,48.0488042 L183.182972,49.4219691 L182.287644,50.7386506 L181.491205,51.9936448 L180.788778,53.1821816 L180.175374,54.2997076 L179.645572,55.3418862 L179.194058,56.3044893 L178.815195,57.1837225 L178.503125,57.9761165 L178.251887,58.6783105 L178.055623,59.2874857 L177.90783,59.8009319 L177.802433,60.2162638 L177.732928,60.5313133 L177.692916,60.7444542 L177.675784,60.8541686 L175.722022,77.142912 C172.207324,76.7184478 168.629173,76.5 165,76.5 C160.7693,76.5 156.607936,76.7968637 152.535602,77.3708967 L150.206634,61.1763734 L150.186899,61.0669843 L150.1419,60.8549275 L150.065021,60.5415042 L149.949865,60.1287742 L149.790144,59.6190141 L149.579568,59.014609 L149.311956,58.3183778 L148.981344,57.5335727 L148.581987,56.6634463 L148.108027,55.7116845 L147.553936,54.6822987 L146.914509,53.5795169 L146.184323,52.4076758 L145.358716,51.171654 L144.432701,49.8763299 L143.401939,48.527016 L142.261878,47.1290244 L141.008721,45.6881011 L139.638565,44.2101004 L138.147832,42.700985 L136.533161,41.1669345 L134.79184,39.6145621 L132.920834,38.0503727 L131.187537,37.4942117 L121.760397,40.3822379 L120.636167,41.8138376 L119.962908,44.1575198 L119.390275,46.4188078 L118.912304,48.5937987 L118.52303,50.6789148 L118.216274,52.6707953 L117.985638,54.5662963 L117.824615,56.3628157 L117.726809,58.0578602 L117.685604,59.6494782 L117.694171,61.1358268 L117.746001,62.5153881 L117.834266,63.787078 L117.952132,64.9501376 L118.092769,66.0040249 L118.249455,66.948523 L118.415357,67.7837403 L118.583861,68.5103273 L118.748028,69.1289345 L118.90146,69.6407544 L119.037327,70.0470881 L119.149229,70.3496701 L119.230771,70.5506686 L119.275662,70.652252 L126.404029,85.3371134 C119.381038,88.7459943 112.876657,93.0562224 107.04126,98.117423 L96.3413848,85.771485 L96.2656987,85.6902833 L96.1130255,85.5361194 L95.8789193,85.3139802 L95.5589343,85.0290696 L95.1489503,84.6864831 L94.644955,84.2918581 L94.0433704,83.8509405 L93.3408348,83.3693679 L92.5343124,82.8532114 L91.6209836,82.308759 L90.5982463,81.7422987 L89.4639318,81.1602268 L88.2160882,80.5690482 L86.8531974,79.9755929 L85.3737416,79.3864742 L83.7769615,78.808522 L82.0619898,78.2486749 L80.2286095,77.7138713 L78.2766039,77.2111581 L76.2065151,76.7473653 L74.0187767,76.3296482 L71.7143648,75.9650537 L69.2945805,75.6605203 L67.5356935,76.1295169 L61.1667899,83.654929 L60.995141,85.4668431 L61.69605,87.8025028 L62.4370791,90.0143542 L63.2111802,92.1023975 L64.0111968,94.0669578 L64.8300806,95.9083605 L65.6610004,97.6276895 L66.4970166,99.2260292 L67.3314063,100.704897 L68.1573382,102.066137 L68.9683065,103.311807 L69.7579135,104.444403 L70.5197617,105.466525 L71.2477789,106.381318 L71.9360013,107.191817 L72.5785735,107.9016 L73.1697486,108.514678 L73.7043219,109.034846 L74.1769801,109.46644 L74.5827353,109.814122 L74.9168164,110.082445 L75.174561,110.276505 L75.3518485,110.401506 L75.4445584,110.462759 L89.3962165,118.971939 C85.3945223,125.530912 82.222352,132.651367 80.0255046,140.187502 L64.3266275,135.578906 L64.2189538,135.551477 L64.0071848,135.504317 L63.6901275,135.443931 L63.2669147,135.377257 L62.7366787,135.310691 L62.0993112,135.251172 L61.3548123,135.205313 L60.5033986,135.179944 L59.5458294,135.181787 L58.4830804,135.217455 L57.3163445,135.29367 L56.0473565,135.417153 L54.6779598,135.594409 L53.2104315,135.831834 L51.647374,136.135934 L49.9914981,136.512888 L48.2460568,136.968875 L46.4145199,137.510075 L44.5006826,138.142234 L42.50834,138.871097 L40.4420463,139.702303 L38.3062473,140.641164 L36.1059307,141.692991 L34.8798821,143.038294 L33.5912678,152.811768 L34.4267418,154.428863 L36.2793147,156.014843 L38.0987071,157.474956 L39.8789553,158.813212 L41.6143124,160.033405 L43.2989229,161.139765 L44.9276906,162.13706 L46.4953023,163.029736 L47.9968784,163.822889 L49.4277565,164.521614 L50.7835991,165.131115 L52.0602858,165.657137 L53.253913,166.105209 L54.3609026,166.481079 L55.3782182,166.790925 L56.3026071,167.040818 L57.1314667,167.236938 L57.8624116,167.385572 L58.4934899,167.493119 L59.02275,167.566298 L59.4488905,167.611506 L59.7707188,167.635466 L59.9873674,167.644681 L60.0985109,167.64609 L76.5283176,167.260929 C76.7272203,175.19292 77.9697597,182.865708 80.1237772,190.14714 L64.3267359,194.784907 L64.2212309,194.820033 L64.0177027,194.894838 L63.71832,195.015502 L63.3261189,195.188096 L62.8441355,195.4188 L62.2758397,195.713143 L61.6247013,196.077087 L60.8947323,196.515944 L60.0901616,197.035028 L59.2153265,197.639541 L58.2751065,198.334363 L57.274381,199.124155 L56.218138,200.013471 L55.1120159,201.006538 L53.9614365,202.10726 L52.7723634,203.319431 L51.5505436,204.64652 L50.3023747,206.09178 L49.0341457,207.658138 L47.7522543,209.348304 L46.4634231,211.164446 L45.174375,213.108733 L43.8920498,215.182899 L43.5881129,216.977467 L47.7889045,225.895992 L49.3661667,226.804714 L51.7822643,227.137543 L54.102399,227.382449 L56.323643,227.545937 L58.4432856,227.634402 L60.4588328,227.654567 L62.3682244,227.613045 L64.1697254,227.516665 L65.8618178,227.372259 L67.4433089,227.186546 L68.913548,226.966467 L70.2719929,226.718851 L71.5184269,226.450527 L72.6530668,226.168435 L73.6763463,225.879297 L74.5890244,225.589724 L75.3924023,225.306657 L76.0876728,225.036599 L76.6767877,224.786055 L77.1615904,224.561423 L77.5444663,224.369097 L77.8282347,224.215259 L78.015498,224.105978 L78.109726,224.047109 L91.8163536,214.778804 C96.1823654,221.185188 101.367594,226.988602 107.22131,232.038317 L96.3417101,244.592219 L96.2719878,244.678733 L96.1411095,244.851653 L95.9546053,245.114989 L95.7180051,245.472211 L95.4372728,245.926789 L95.1182638,246.481649 L94.7672671,247.139719 L94.3904635,247.903491 L93.9943588,248.775136 L93.5853506,249.756494 L93.1700533,250.849302 L92.7551898,252.054751 L92.3475912,253.373709 L91.9539805,254.807044 L91.5812973,256.354971 L91.2363728,258.017492 L90.9262553,259.794388 L90.6576675,261.684902 L90.4377659,263.688166 L90.2732735,265.802879 L90.1711299,268.027415 L90.1380579,270.359822 L90.1808888,272.797933 L90.8955688,274.471836 L99.252044,279.70387 L101.070352,279.615838 L103.282813,278.589813 L105.367107,277.541672 L107.324209,276.478461 L109.155203,275.407119 L110.861609,274.334585 L112.445485,273.26758 L113.908893,272.212717 L115.254218,271.176609 L116.484278,270.165437 L117.602111,269.185596 L118.610969,268.243049 L119.514539,267.343543 L120.316399,266.492931 L121.020886,265.696526 L121.63223,264.959531 L122.154984,264.287151 L122.593811,263.684155 L122.953916,263.15488 L123.240287,262.70388 L123.458453,262.335166 L123.613946,262.052424 L123.712403,261.859123 L123.759788,261.758732 L130.320726,246.455196 L130.376517,246.470867 C137.205534,249.376742 144.474613,251.449085 152.056018,252.560161 L152.576756,252.706425 L150.206959,269.187222 L150.19514,269.297587 L150.17855,269.513872 L150.16402,269.836185 L150.158165,270.264635 L150.167815,270.798788 L150.199477,271.437994 L150.260091,272.181385 L150.356163,273.027552 L150.494198,273.974978 L150.68081,275.021601 L150.92229,276.165363 L151.225142,277.403662 L151.59544,278.733678 L152.039364,280.15216 L152.562877,281.655854 L153.171726,283.240859 L153.87166,284.90338 L154.667989,286.638862 L155.566246,288.443079 L156.571309,290.310935 L157.688274,292.23755 L158.921696,294.217614 L160.276129,296.245488 L161.782476,297.267393 L171.641612,297.151824 L173.123562,296.094793 L174.430067,294.035804 L175.616647,292.027337 L176.688179,290.075027 L177.649109,288.184079 L178.504752,286.359372 L179.260202,284.605568 L179.920883,282.927219 L180.492432,281.328337 L180.980487,279.812826 L181.391014,278.384261 L181.730083,277.045897 L182.003767,275.800877 L182.218355,274.651803 L182.380354,273.601059 L182.49616,272.650599 L182.572279,271.80248 L182.615436,271.057897 L182.632134,270.41804 L182.629207,269.883779 L182.613375,269.455654 L182.591255,269.133774 L182.569569,268.918032 L182.555147,268.807884 L179.79933,252.387147 L180.696746,252.112222 C187.737552,250.85198 194.489683,248.759055 200.847606,245.938976 L201.902687,245.615751 L208.820802,260.76122 L208.870573,260.860526 L208.973584,261.051334 L209.135582,261.33039 L209.362315,261.694009 L209.659204,262.138179 L210.03167,262.65878 L210.484594,263.251368 L211.022854,263.911281 L211.65133,264.63364 L212.37425,265.41335 L213.195953,266.244989 L214.120342,267.12303 L215.150995,268.041617 L216.29149,268.995005 L217.544973,269.977014 L218.914261,270.981357 L220.401958,272.001527 L222.010448,273.03113 L223.741577,274.063334 L225.597186,275.091419 L227.578685,276.108446 L229.686942,277.107476 L231.922933,278.081246 L233.742759,278.126671 L241.974211,272.700144 L242.649422,271.009869 L242.635109,268.571434 L242.547278,266.240436 L242.392978,264.018936 L242.178932,261.908668 L241.912079,259.91115 L241.599251,258.027357 L241.247495,256.258266 L240.863643,254.604311 L240.454744,253.065598 L240.027627,251.641913 L239.589234,250.33282 L239.146178,249.137453 L238.705399,248.054728 L238.273511,247.083127 L237.857021,246.221131 L237.462435,245.466357 L237.096041,244.816635 L236.764236,244.269364 L236.472878,243.821508 L236.227928,243.469923 L236.035243,243.21114 L235.900353,243.041256 L235.828679,242.956477 L224.631159,230.632143 L225.557888,229.537133 C230.512734,224.885956 234.931782,219.670677 238.712514,213.993811 L239.563969,212.987744 L253.573692,221.989422 L253.669221,222.046014 L253.859087,222.150958 L254.146217,222.298075 L254.533538,222.481402 L255.023546,222.694543 L255.618299,222.931209 L256.31975,223.184897 L257.129526,223.449101 L258.048818,223.717099 L259.078604,223.98217 L260.219533,224.2377 L261.47193,224.476643 L262.835797,224.692386 L264.310699,224.877882 L265.896202,225.026408 L267.591222,225.131135 L269.394458,225.185234 L271.304283,225.181981 L273.318854,225.114548 L275.435786,224.976321 L277.652584,224.760903 L279.96643,224.461682 L282.373961,224.072261 L283.929537,223.126787 L287.919861,214.112208 L287.57396,212.325229 L286.243274,210.281744 L284.90901,208.368138 L283.577998,206.582676 L282.256746,204.923191 L280.952083,203.386973 L279.670409,201.97131 L278.417794,200.673275 L277.200528,199.489292 L276.024467,198.41589 L274.895357,197.449059 L273.818621,196.584787 L272.79957,195.818629 L271.843302,195.146032 L270.954588,194.562225 L270.138089,194.062114 L269.398036,193.640494 L268.738548,193.291945 L268.163421,193.010937 L267.676125,192.791725 L267.28002,192.628238 L266.977926,192.514729 L266.772663,192.444694 L266.666399,192.412061 L250.58225,188.096989 L250.708878,187.136595 C252.450513,180.373687 253.412821,173.297832 253.49435,166.010484" style="mix-blend-mode:multiply"/>
      <path id="marks" stroke="#000000" d="M164.5,164.5 L127,164.5 L126.5,164.5 L126.5,165.5 L127,165.5 L164.5,165.5 L164.5,203 L164.5,203.5 L165.5,203.5 L165.5,203 L165.5,165.5 L203,165.5 L203.5,165.5 L203.5,164.5 L203,164.5 L165.5,164.5 L165.5,127 L165.5,126.5 L164.5,126.5 L164.5,127 L164.5,164.5 Z" stroke-linecap="square" transform="translate(165.000000, 165.000000) rotate(45.000000) translate(-165.000000, -165.000000)"/>
    </g>
  </g>
</svg>
