<svg xmlns="http://www.w3.org/2000/svg" width="32" height="32" viewBox="0 0 32 32">
  <path fill="#2E2E2E" fill-rule="evenodd" d="M25.976,15.3333333 C25.648,10.3413333 21.6586667,6.35066667 16.6666667,6.02266667 L16.6666667,6 L16,6 L15.3333333,6 L15.3333333,6.02266667 C10.3413333,6.35066667 6.35066667,10.3413333 6.02266667,15.3333333 L6,15.3333333 L6,16 L6,16.6666667 L6.02266667,16.6666667 C6.35066667,21.6586667 10.3413333,25.648 15.3333333,25.976 L15.3333333,26 L16,26 L16.6666667,26 L16.6666667,25.976 C21.6586667,25.648 25.648,21.6586667 25.976,16.6666667 L26,16.6666667 L26,16 L26,15.3333333 L25.976,15.3333333 Z M12.26,8.18 C11.616,9.036 11.0813333,10.1093333 10.692,11.3333333 L8.69466667,11.3333333 C9.564,9.97733333 10.7986667,8.88 12.26,8.18 Z M7.99733333,12.6666667 L10.3413333,12.6666667 C10.1626667,13.5093333 10.0493333,14.404 10.0133333,15.3333333 L7.35866667,15.3333333 C7.42933333,14.3946667 7.65066667,13.4973333 7.99733333,12.6666667 Z M7.35866667,16.6666667 L10.0133333,16.6666667 C10.0493333,17.596 10.1626667,18.4906667 10.3413333,19.3333333 L7.99733333,19.3333333 C7.65066667,18.5026667 7.42933333,17.6053333 7.35866667,16.6666667 Z M8.69466667,20.6666667 L10.6906667,20.6666667 C11.08,21.8906667 11.6146667,22.964 12.26,23.82 C10.7986667,23.12 9.564,22.024 8.69466667,20.6666667 Z M15.3333333,24.5813333 C13.9626667,24.2146667 12.7826667,22.7426667 12.0666667,20.6666667 L15.3333333,20.6666667 L15.3333333,24.5813333 Z M15.3333333,19.3333333 L11.692,19.3333333 C11.504,18.5026667 11.3853333,17.6053333 11.3466667,16.6666667 L15.3333333,16.6666667 L15.3333333,19.3333333 Z M15.3333333,15.3333333 L11.3466667,15.3333333 C11.3853333,14.3946667 11.504,13.4973333 11.692,12.6666667 L15.3333333,12.6666667 L15.3333333,15.3333333 Z M15.3333333,11.3333333 L12.0666667,11.3333333 C12.7826667,9.25733333 13.9626667,7.78533333 15.3333333,7.42 L15.3333333,11.3333333 Z M23.3053333,11.3333333 L21.3106667,11.3333333 C20.92,10.1093333 20.3866667,9.036 19.74,8.18 C21.2,8.88 22.436,9.97733333 23.3053333,11.3333333 Z M16.6666667,7.42 C18.036,7.78533333 19.2173333,9.25733333 19.9333333,11.3333333 L16.6666667,11.3333333 L16.6666667,7.42 Z M16.6666667,12.6666667 L20.3066667,12.6666667 C20.496,13.4973333 20.612,14.3946667 20.6533333,15.3333333 L16.6666667,15.3333333 L16.6666667,12.6666667 Z M16.6666667,16.6666667 L20.6533333,16.6666667 C20.6146667,17.6053333 20.496,18.5026667 20.3066667,19.3333333 L16.6666667,19.3333333 L16.6666667,16.6666667 Z M16.6666667,24.5813333 L16.6666667,20.6666667 L19.9333333,20.6666667 C19.2173333,22.7426667 18.036,24.2146667 16.6666667,24.5813333 Z M19.74,23.82 C20.384,22.9626667 20.92,21.8906667 21.3106667,20.6666667 L23.3053333,20.6666667 C22.436,22.024 21.2,23.12 19.74,23.82 Z M24.0026667,19.3333333 L21.6586667,19.3333333 C21.8373333,18.4906667 21.9506667,17.596 21.9866667,16.6666667 L24.64,16.6666667 C24.5706667,17.6053333 24.3493333,18.5026667 24.0026667,19.3333333 Z M21.9866667,15.3333333 C21.9506667,14.404 21.8373333,13.5093333 21.6586667,12.6666667 L24.0026667,12.6666667 C24.3493333,13.4973333 24.5706667,14.3946667 24.6413333,15.3333333 L21.9866667,15.3333333 Z"/>
</svg>
