<svg xmlns="http://www.w3.org/2000/svg" width="138" height="25" viewBox="0 0 171 31">
  <path fill="#2744A5" fill-rule="evenodd" d="M14.7153109,30.3313893 C7.37130399,30.3313893 1.41781013,24.3779104 1.41781013,17.0339219 C1.41781013,9.6899335 7.37130399,3.73645457 14.7153109,3.73645457 C22.0593177,3.73645457 28.0128116,9.6899335 28.0128116,17.0339219 C28.0128116,24.3779104 22.0593177,30.3313893 14.7153109,30.3313893 Z M30.7380472,4.21630897 L41.2223111,4.21630897 C45.9870666,4.21630897 49.5995609,6.79803948 49.5995609,11.8370797 C49.5995609,15.6941229 47.4818918,18.2758534 44.3365304,19.2712194 L51.0727731,29.8780881 L44.278446,29.8780881 L37.9048552,19.7377972 L36.5927794,19.7377972 L36.5927794,29.8780881 L30.7380472,29.8780881 L30.7380472,4.21630897 Z M36.5927794,15.6008074 L38.5752248,15.6008074 C40.7863204,15.6008074 43.4334068,15.4452814 43.4334068,12.2414472 C43.4334068,9.03761293 40.7863204,8.882087 38.5752248,8.882087 L36.5927794,8.882087 L36.5927794,15.6008074 Z M52.873967,11.3698271 C52.873967,6.79803948 57.1093051,3.74973117 61.2512167,3.74973117 C65.9225456,3.74973117 69.8722766,6.17593574 69.8722766,6.17593574 L67.50547,10.8417138 C67.50547,10.8417138 64.3031516,9.06871812 61.6560652,9.06871812 C59.6629649,9.06871812 58.6041304,9.97076854 58.6041304,11.3705019 C58.6041304,12.8013405 61.68188,13.8278117 64.609246,15.0720192 C67.4743278,16.2851215 70.6196892,18.711326 70.6196892,22.0706862 C70.6196892,28.198408 65.9483603,30.3446659 60.9344673,30.3446659 C56.8381515,30.3446659 53.3443023,28.5098532 51.8508876,27.5067918 C51.8508876,27.5067918 54.4742388,22.3656723 54.4742388,22.3656723 C55.6457193,23.2110554 58.3000167,24.9540909 60.3363124,24.9323634 C62.2293988,24.912164 64.2043975,24.8079427 64.2043975,22.4128433 C64.2043975,20.5465321 61.4815892,19.6294113 58.4119497,18.1825379 C54.971124,16.5607058 52.873967,14.2632843 52.873967,11.3698271 Z M106.941866,13.9522325 L106.941866,29.8780881 L101.087134,29.8780881 L101.087134,4.21630897 L106.941866,4.21630897 L117.156505,20.1421646 L117.21879,20.1421646 L117.21879,4.21630897 L123.073522,4.21630897 L123.073522,29.8780881 L117.21879,29.8780881 L107.004151,13.9522325 L106.941866,13.9522325 Z M125.635931,27.1148281 C125.635931,25.3926341 127.008307,24.0202607 128.703596,24.0202607 C130.425795,24.0202607 131.798172,25.3926341 131.798172,27.1148281 C131.798172,28.8101129 130.425795,30.1824862 128.703596,30.1824862 C127.008307,30.1824862 125.635931,28.8101129 125.635931,27.1148281 Z M140.955024,3.9213217 C140.955024,5.72539105 139.491341,7.18730932 137.685094,7.18730932 C135.878847,7.18730932 134.415164,5.72539105 134.415164,3.9213217 C134.415164,2.11725234 135.878847,0.655334075 137.685094,0.655334075 C139.491341,0.655334075 140.955024,2.11725234 140.955024,3.9213217 Z M134.851155,8.882087 L140.363323,8.882087 L140.363323,29.8780881 L134.851155,29.8780881 L134.851155,8.882087 Z M14.7152962,24.8310819 C18.8351049,24.8310819 22.1748698,21.3461186 22.1748698,17.0471985 C22.1748698,12.7482785 18.8351049,9.2633152 14.7152962,9.2633152 C10.5954875,9.2633152 7.25572264,12.7482785 7.25572264,17.0471985 C7.25572264,21.3461186 10.5954875,24.8310819 14.7152962,24.8310819 Z M85.2567536,30.3446659 C77.9127468,30.3446659 71.9592529,24.391187 71.9592529,17.0471985 C71.9592529,9.7032101 77.9127468,3.74973117 85.2567536,3.74973117 C92.6007605,3.74973117 98.5542544,9.7032101 98.5542544,17.0471985 C98.5542544,24.391187 92.6007605,30.3446659 85.2567536,30.3446659 Z M85.256739,24.8310819 C89.3765477,24.8310819 92.7163126,21.3461186 92.7163126,17.0471985 C92.7163126,12.7482785 89.3765477,9.2633152 85.256739,9.2633152 C81.1369303,9.2633152 77.7971654,12.7482785 77.7971654,17.0471985 C77.7971654,21.3461186 81.1369303,24.8310819 85.256739,24.8310819 Z M156.284689,30.3313893 C148.940682,30.3313893 142.987188,24.3779104 142.987188,17.0339219 C142.987188,9.6899335 148.940682,3.73645457 156.284689,3.73645457 C163.628696,3.73645457 169.58219,9.6899335 169.58219,17.0339219 C169.58219,24.3779104 163.628696,30.3313893 156.284689,30.3313893 Z M156.284675,24.8310819 C160.404483,24.8310819 163.744248,21.3461186 163.744248,17.0471985 C163.744248,12.7482785 160.404483,9.2633152 156.284675,9.2633152 C152.164866,9.2633152 148.825101,12.7482785 148.825101,17.0471985 C148.825101,21.3461186 152.164866,24.8310819 156.284675,24.8310819 Z"/>
</svg>
