<svg xmlns="http://www.w3.org/2000/svg" width="70" height="70" viewBox="0 0 70 70">
  <path fill="#000000" d="M23.5,0.630762406 C11.0822968,0.630762406 0.979345962,10.733037 0.979345962,23.1514164 C0.979345962,35.5697959 11.0822968,45.6720705 23.5,45.6720705 C35.9177032,45.6720705 46.020654,35.5691197 46.020654,23.1514164 C46.020654,10.7337132 35.9177032,0.630762406 23.5,0.630762406 Z M40.1833936,33.8467491 L32.3208093,33.8467491 C32.9591751,31.0653946 33.3486865,27.9060247 33.4298347,24.4971241 L43.2778449,24.4971241 C43.0465725,27.924283 41.9416045,31.1134073 40.1833936,33.8467491 Z M23.5,42.8927447 C21.6504973,42.8927447 19.6880633,40.534037 18.2706748,36.5395169 L28.7300015,36.5395169 C27.3119367,40.534037 25.3495027,42.8927447 23.5,42.8927447 Z M17.4639264,33.8467491 C16.7958063,31.1769734 16.3542248,28.0148985 16.2642856,24.4971241 L30.7357144,24.4971241 C30.645099,28.0148985 30.2041937,31.1769734 29.5360736,33.8467491 L17.4639264,33.8467491 Z M3.7221551,24.4971241 L13.5701653,24.4971241 C13.6513135,27.9060247 14.0401487,31.0653946 14.6791907,33.8467491 L6.81660644,33.8467491 C5.05839545,31.1134073 3.95342747,27.924283 3.7221551,24.4971241 Z M6.81660644,12.4560838 L14.6791907,12.4560838 C14.0408249,15.2374383 13.6513135,18.3968082 13.5701653,21.8057088 L3.7221551,21.8057088 C3.95342747,18.3785498 5.05839545,15.1894256 6.81660644,12.4560838 Z M23.5,3.41008824 C25.3495027,3.41008824 27.3119367,5.7687959 28.7293252,9.76331601 L18.2706748,9.76331601 C19.6880633,5.7687959 21.6504973,3.41008824 23.5,3.41008824 Z M29.5360736,12.4560838 C30.2041937,15.1258595 30.6457752,18.2879344 30.7357144,21.8057088 L16.2642856,21.8057088 C16.354901,18.2879344 16.7958063,15.1258595 17.4639264,12.4560838 L29.5360736,12.4560838 Z M33.4298347,21.8057088 C33.3486865,18.3968082 32.9598513,15.2374383 32.3208093,12.4560838 L40.1833936,12.4560838 C41.9422808,15.1894256 43.0465725,18.3792261 43.2778449,21.8057088 L33.4298347,21.8057088 Z M38.1107333,9.76263978 L31.5870943,9.76263978 C30.8587892,7.48305161 29.9397859,5.55307693 28.875392,4.06874112 C32.469581,5.08309361 35.6539716,7.08272049 38.1107333,9.76263978 Z M18.124608,4.06874112 C17.0602141,5.55307693 16.1412108,7.48305161 15.4129057,9.76263978 L8.8892667,9.76263978 C11.3460284,7.08272049 14.530419,5.08309361 18.124608,4.06874112 Z M8.8892667,36.5401931 L15.4129057,36.5401931 C16.1412108,38.8197813 17.0602141,40.749756 18.124608,42.2340918 C14.530419,41.2197393 11.3460284,39.2201124 8.8892667,36.5401931 Z M28.875392,42.2340918 C29.9397859,40.749756 30.8587892,38.8197813 31.5870943,36.5401931 L38.1107333,36.5401931 C35.6539716,39.2201124 32.469581,41.2197393 28.875392,42.2340918 Z" transform="translate(11.5 12)"/>
</svg>
