<svg xmlns="http://www.w3.org/2000/svg" width="70" height="70" viewBox="0 0 70 70">
  <g fill="#000000" transform="translate(11.496 14.87)">
    <path d="M2.20399298 8.0074997L6.33145642 8.0074997C7.03118676 10.709499 9.48181892 12.7125559 12.39815 12.7125559 15.3152691 12.7125559 17.7666892 10.709499 18.4664196 8.0074997L45.0750842 8.0074997C45.9402913 8.0074997 46.6431736 7.3054054 46.6431736 6.43941031 46.6431736 5.57341521 45.9395033 4.87132092 45.0750842 4.87132092L18.4672075 4.87132092C17.7674772 2.16932166 15.316057.166264755 12.398938.166264755 9.48260691.166264755 7.03118676 2.16932166 6.3322444 4.87132092L2.20478096 4.87132092C1.33957385 4.87132092.636691572 5.57341521.636691572 6.43941031.636691572 7.3054054 1.33878587 8.0074997 2.20399298 8.0074997zM12.39815 3.30244354C14.1277762 3.30244354 15.5359048 4.70899608 15.5359048 6.43862232 15.5359048 8.16824856 14.1277762 9.57480111 12.39815 9.57480111 10.6700997 9.57480111 9.26197121 8.16824856 9.26197121 6.43862232 9.26197121 4.70899608 10.6700997 3.30244354 12.39815 3.30244354zM45.0750842 18.1315261L29.867769 18.1315261C29.1688266 15.4295268 26.7181945 13.4264699 23.8010754 13.4264699 20.8839564 13.4264699 18.4325362 15.4295268 17.7328059 18.1315261L2.20399298 18.1315261C1.33878587 18.1315261.635903588 18.8336204.635903588 19.6996155.635903588 20.5656106 1.33957385 21.2677049 2.20399298 21.2677049L17.7328059 21.2677049C18.4325362 23.9697041 20.8839564 25.972761 23.8010754 25.972761 26.7181945 25.972761 29.1688266 23.9697041 29.867769 21.2677049L45.0750842 21.2677049C45.9402913 21.2677049 46.6431736 20.5656106 46.6431736 19.6996155 46.6431736 18.8336204 45.9402913 18.1315261 45.0750842 18.1315261zM23.8010754 22.8357943C22.0714492 22.8357943 20.6648966 21.4292417 20.6648966 19.6996155 20.6648966 17.9699892 22.0714492 16.5634367 23.8010754 16.5634367 25.5307017 16.5634367 26.9372542 17.9699892 26.9372542 19.6996155 26.9372542 21.4292417 25.5307017 22.8357943 23.8010754 22.8357943zM45.0750842 31.3917313L41.2691185 31.3917313C40.5693881 28.689732 38.118756 26.6850991 35.2024249 26.6850991 32.2853058 26.6850991 29.8338857 28.689732 29.1341553 31.3917313L2.20399298 31.3917313C1.33878587 31.3917313.635903588 32.0938256.635903588 32.9598207.635903588 33.8250278 1.33957385 34.52791 2.20399298 34.52791L29.1341553 34.52791C29.8338857 37.2299093 32.2853058 39.2329662 35.2024249 39.2329662 38.118756 39.2329662 40.5701761 37.2299093 41.2691185 34.52791L45.0750842 34.52791C45.9402913 34.52791 46.6431736 33.8242398 46.6431736 32.9598207 46.6431736 32.0938256 45.9402913 31.3917313 45.0750842 31.3917313zM35.2024249 36.0967874C33.4727986 36.0967874 32.0646701 34.6902349 32.0646701 32.9606086 32.0646701 31.2309824 33.4727986 29.8244299 35.2024249 29.8244299 36.9320511 29.8244299 38.3386037 31.2309824 38.3386037 32.9606086 38.3386037 34.6902349 36.9320511 36.0967874 35.2024249 36.0967874z"/>
  </g>
</svg>
