<svg xmlns="http://www.w3.org/2000/svg" width="195" height="195" viewBox="0 0 195 195">
  <g fill="#000000" fill-rule="evenodd" transform="translate(32 32)">
    <path fill-rule="nonzero" d="M129.693026,65.6146134 C129.693026,29.3819709 100.665547,-9.59232693e-14 64.8465132,-9.59232693e-14 C35.5023536,-9.59232693e-14 10.0468528,19.8898188 2.34005213,48.0898719 C0.792452305,53.7527143 -1.42108547e-14,59.6330625 -1.42108547e-14,65.6146134 C-1.42108547e-14,101.847256 29.0274797,131.229227 64.8465132,131.229227 C100.665547,131.229227 129.693026,101.847256 129.693026,65.6146134 Z M10.6010017,65.6146134 C10.6010017,60.5936591 11.2648977,55.6672556 12.5605504,50.926316 C19.0103396,27.3258098 40.3104661,10.6828194 64.8465132,10.6828194 C94.8001888,10.6828194 119.092025,35.2713135 119.092025,65.6146134 C119.092025,95.9579133 94.8001888,120.546407 64.8465132,120.546407 C34.8928376,120.546407 10.6010017,95.9579133 10.6010017,65.6146134 Z" transform="translate(.122)"/>
    <path d="M75.6010017,58.6250715 L75.6010017,99.8624273 C75.6010017,100.215501 75.3173162,100.501723 74.9664678,100.501723 L55.0335322,100.501723 C54.6830888,100.501723 54.3989983,100.213137 54.3989983,99.8624273 L54.3989983,58.6250715 L36.8067497,58.6250715 C36.5695687,58.6250715 36.5183203,58.4876779 36.6804941,58.3296799 L64.6547505,31.0757249 C64.9039743,30.8329183 65.3048049,30.8297609 65.5572695,31.0757249 L93.5315259,58.3296799 C93.6989779,58.4928202 93.6488996,58.6250715 93.4052703,58.6250715 L75.6010017,58.6250715 Z"/>
  </g>
</svg>
