<svg xmlns="http://www.w3.org/2000/svg" width="315" height="315" viewBox="0 0 315 315">
  <g fill="none" fill-rule="evenodd">
    <g fill="#000000" transform="translate(30 217.533)">
      <path d="M17.3856863 35.449362C7.7838369 35.449362 0 27.557931 0 17.8233575 0 8.08878396 7.7838369.197352925 17.3856863.197352925 26.9875357.197352925 34.7713727 8.08878396 34.7713727 17.8233575 34.7713727 27.557931 26.9875357 35.449362 17.3856863 35.449362zM38.3344551.833407574L52.0420027.833407574C58.2716353.833407574 62.9947554 4.25553243 62.9947554 10.9348605 62.9947554 16.0474325 60.2260299 19.4695574 56.113658 20.7889308L64.9208922 34.8485041 56.0377162 34.8485041 47.7046276 21.4073871 45.9891671 21.4073871 45.9891671 34.8485041 38.3344551 34.8485041 38.3344551.833407574zM45.9891671 15.9237413L48.5810958 15.9237413C51.471971 15.9237413 54.932878 15.7175892 54.932878 11.4708559 54.932878 7.22412267 51.471971 7.01797057 48.5810958 7.01797057L45.9891671 7.01797057 45.9891671 15.9237413zM67.2758454 10.3155096C67.2758454 4.25553243 72.8132965.214951275 78.2285981.214951275 84.336081.214951275 89.5001179 3.43092403 89.5001179 3.43092403L86.4056598 9.61548703C86.4056598 9.61548703 82.2188202 7.26535309 78.7579133 7.26535309 76.1520539 7.26535309 74.7676911 8.46103527 74.7676911 10.3164042 74.7676911 12.2130035 78.7916645 13.5736073 82.6190204 15.2228241 86.3649433 16.8308105 90.4773151 20.0467833 90.4773151 24.4996686 90.4773151 32.6220614 84.3698322 35.4669604 77.8144672 35.4669604 72.4587795 35.4669604 67.8907807 33.0348869 65.9382304 31.705313 65.9382304 31.705313 69.3681051 24.8906774 69.3681051 24.8906774 70.8997457 26.0112462 74.3700807 28.3216674 77.0324154 28.2928673 79.5075125 28.2660926 82.0897052 28.1279456 82.0897052 24.9532033 82.0897052 22.4793781 78.5297962 21.2637199 74.5164264 19.3458661 70.0177526 17.196102 67.2758454 14.1508332 67.2758454 10.3155096zM137.966388 13.738529L137.966388 34.8485041 130.311676 34.8485041 130.311676.833407574 137.966388.833407574 151.321417 21.9433826 151.40285 21.9433826 151.40285.833407574 159.057562.833407574 159.057562 34.8485041 151.40285 34.8485041 138.047821 13.738529 137.966388 13.738529zM17.3856672 28.158617C22.7720705 28.158617 27.1386132 23.5392427 27.1386132 17.8409558 27.1386132 12.1426689 22.7720705 7.52329462 17.3856672 7.52329462 11.9992639 7.52329462 7.6327212 12.1426689 7.6327212 17.8409558 7.6327212 23.5392427 11.9992639 28.158617 17.3856672 28.158617zM109.614401 35.4669604C100.012551 35.4669604 92.2287145 27.5755293 92.2287145 17.8409558 92.2287145 8.10638231 100.012551.214951275 109.614401.214951275 119.21625.214951275 127.000087 8.10638231 127.000087 17.8409558 127.000087 27.5755293 119.21625 35.4669604 109.614401 35.4669604zM109.614382 28.158617C115.000785 28.158617 119.367328 23.5392427 119.367328 17.8409558 119.367328 12.1426689 115.000785 7.52329462 109.614382 7.52329462 104.227978 7.52329462 99.8614357 12.1426689 99.8614357 17.8409558 99.8614357 23.5392427 104.227978 28.158617 109.614382 28.158617zM184.092395.854625551L176.400668.854625551 176.400668 34.8687218 195.711812 34.8687218 195.711812 28.0659026 184.092395 28.0659026 184.092395.854625551zM206.784449.854625551L206.784449 34.8687218 199.092722 34.8687218 199.092722.854625551 206.784449.854625551zM229.193656.888810703L229.193656 7.69162996 219.173768 7.6574448 219.173768 14.4190348 227.285476 14.4559913 227.285476 21.2588106 219.173768 21.2218541 219.173768 34.8687218 211.482042 34.8687218 211.482042.854625551 229.193656.888810703zM230.164578 7.6574448L230.164578.854625551 253.894374.854625551 253.894374 7.6574448 245.87534 7.6574448 245.87534 34.8687218 238.183613 34.8687218 238.183613 7.6574448 230.164578 7.6574448z"/>
    </g>
    <path fill="#000000" d="M167.601002,117.625071 L167.601002,130.259828 C167.601002,130.611704 167.317316,130.896955 166.966468,130.896955 L147.033532,130.896955 C146.683089,130.896955 146.398998,130.606649 146.398998,130.259828 L146.398998,117.625071 L128.80675,117.625071 C128.569569,117.625071 128.51832,117.487678 128.680494,117.32968 L156.654751,90.0757249 C156.903974,89.8329183 157.304805,89.8297609 157.55727,90.0757249 L185.531526,117.32968 C185.698978,117.49282 185.6489,117.625071 185.40527,117.625071 L167.601002,117.625071 Z"/>
    <path fill="#000000" d="M210.245878,135 C210.881272,131.637121 211.213895,128.165267 211.213895,124.614613 C211.213895,94.2713135 186.922059,69.6828194 156.968383,69.6828194 C132.432336,69.6828194 111.132209,86.3258098 104.68242,109.926316 C103.386767,114.667256 102.722871,119.593659 102.722871,124.614613 C102.722871,154.957913 127.014707,179.546407 156.968383,179.546407 C170.075552,179.546407 182.098607,174.838266 191.476597,167 L137,167 L137,135 L210.245878,135 Z M221.814896,124.614613 C221.814896,160.847256 192.787416,190.229227 156.968383,190.229227 C121.14935,190.229227 92.1218698,160.847256 92.1218698,124.614613 C92.1218698,118.633062 92.9143221,112.752714 94.4619219,107.089872 C102.168723,78.8898188 127.624223,59 156.968383,59 C192.787416,59 221.814896,88.3819709 221.814896,124.614613 Z"/>
    <path fill="#FFFFFF" d="M144.387634,141.506067 L150.341687,141.506067 C153.644326,141.506067 156.249224,142.738742 156.249224,146.390251 C156.249224,148.157861 155.481709,149.669632 153.853648,150.506921 C156.249224,150.925565 157.947059,152.251272 157.947059,155.344588 C157.947059,158.507679 155.644515,160.693933 151.667394,160.693933 L144.387634,160.693933 L144.387634,141.506067 Z M148.760142,149.018407 L149.109012,149.018407 C150.992912,149.018407 152.016264,148.436957 152.016264,146.832154 C152.016264,145.459931 151.01617,144.87848 149.109012,144.87848 L148.760142,144.87848 L148.760142,149.018407 Z M148.760142,157.32152 L150.132365,157.32152 C152.202328,157.32152 153.341971,156.693553 153.341971,155.181782 C153.341971,153.414173 152.202328,152.786206 150.132365,152.786206 L148.760142,152.786206 L148.760142,157.32152 Z M171.242893,141.506067 L160.265108,141.506067 L160.265108,160.693933 L171.242893,160.693933 L171.242893,156.85636 L164.637616,156.85636 L164.637616,152.995528 L170.963797,152.995528 L170.963797,149.157955 L164.637616,149.157955 L164.637616,145.34364 L171.242893,145.34364 L171.242893,141.506067 Z M172.932975,145.34364 L172.932975,141.506067 L186.422626,141.506067 L186.422626,145.34364 L181.864054,145.34364 L181.864054,160.693933 L177.491547,160.693933 L177.491547,145.34364 L172.932975,145.34364 Z M196.051446,141.506067 L203.796366,160.693933 L199.098246,160.693933 L197.679507,156.85636 L190.376489,156.85636 L188.95775,160.693933 L184.25963,160.693933 L192.00455,141.506067 L196.051446,141.506067 Z M196.190994,153.018787 L194.051256,147.436862 L194.00474,147.436862 L191.865002,153.018787 L196.190994,153.018787 Z"/>
  </g>
</svg>
